<svg xmlns="http://www.w3.org/2000/svg" width="20" height="20" viewBox="0 0 20 20">
  <defs>
    <style>
      .cls-1 {
        fill: #fff;
      }
    </style>
  </defs>
  <g id="Symbol_41_2" data-name="Symbol 41 – 2" transform="translate(-603.75 -940)">
    <path id="Path_494" data-name="Path 494" class="cls-1" d="M6,16a2,2,0,1,0,2,2A2.006,2.006,0,0,0,6,16ZM0,0V2H2L5.6,9.6,4.2,12A3.553,3.553,0,0,0,4,13a2.006,2.006,0,0,0,2,2H18V13H6.4a.215.215,0,0,1-.2-.2v-.1L7.1,11h7.4a1.824,1.824,0,0,0,1.7-1l3.6-6.5A.551.551,0,0,0,20,3a.945.945,0,0,0-1-1H4.2L3.3,0ZM16,16a2,2,0,1,0,2,2A2.006,2.006,0,0,0,16,16Z" transform="translate(603.75 940)"/>
  </g>
</svg>
