<svg xmlns="http://www.w3.org/2000/svg" width="50" height="30" viewBox="0 0 50 30">
  <defs>
    <style>
      .cls-1 {
        fill: #43d3e8;
      }

      .cls-2 {
        fill: #242d3c;
      }

      .cls-3 {
        fill: #f96232;
      }

      .cls-4 {
        fill: #fff;
      }
    </style>
  </defs>
  <g id="delivery-truck_2_" data-name="delivery-truck (2)" transform="translate(0 -101.087)">
    <path id="Path_613" data-name="Path 613" class="cls-1" d="M378.005,221.092h-4.242v6.43h9.948Z" transform="translate(-337.263 -108.385)"/>
    <g id="Group_602" data-name="Group 602" transform="translate(2.279 101.087)">
      <path id="Path_614" data-name="Path 614" class="cls-2" d="M49.726,284.987H44.654V275.94h1.7v7.366h3.377Z" transform="translate(-42.572 -259.009)"/>
      <path id="Path_615" data-name="Path 615" class="cls-2" d="M55.7,127.064H38.6v-1.681H54V102.768H23.332v-1.681H55.7Z" transform="translate(-23.332 -101.087)"/>
      <rect id="Rectangle_1731" data-name="Rectangle 1731" class="cls-2" width="1.695" height="4.472" transform="translate(2.082 0.84)"/>
      <rect id="Rectangle_1732" data-name="Rectangle 1732" class="cls-2" width="2.097" height="1.681" transform="translate(2.93 20.136)"/>
      <rect id="Rectangle_1733" data-name="Rectangle 1733" class="cls-2" width="1.628" height="1.681" transform="translate(26.509 20.136)"/>
      <rect id="Rectangle_1734" data-name="Rectangle 1734" class="cls-2" width="1.628" height="1.681" transform="translate(23.254 20.136)"/>
      <rect id="Rectangle_1735" data-name="Rectangle 1735" class="cls-2" width="1.628" height="1.681" transform="translate(19.999 20.136)"/>
      <rect id="Rectangle_1736" data-name="Rectangle 1736" class="cls-2" width="2.097" height="1.681" transform="translate(44.776 20.136)"/>
    </g>
    <rect id="Rectangle_1737" data-name="Rectangle 1737" class="cls-3" width="21.828" height="13.858" transform="translate(8.587 105.279)"/>
    <path id="Path_616" data-name="Path 616" class="cls-2" d="M354.449,202.61H349.98V200.93h2.774v-6.941l-6.724-7.576h-6.938V200.93h2.775v1.681H337.4V184.732h9.4l7.652,8.622Z" transform="translate(-304.449 -75.546)"/>
    <ellipse id="Ellipse_106" data-name="Ellipse 106" class="cls-1" cx="4.055" cy="4.021" rx="4.055" ry="4.021" transform="translate(9.435 122.204)"/>
    <path id="Path_617" data-name="Path 617" class="cls-2" d="M92.822,320.2a4.863,4.863,0,1,1,4.9-4.863A4.889,4.889,0,0,1,92.822,320.2Zm0-8.045a3.182,3.182,0,1,0,3.209,3.182A3.2,3.2,0,0,0,92.822,312.156Z" transform="translate(-79.332 -189.114)"/>
    <rect id="Rectangle_1738" data-name="Rectangle 1738" class="cls-4" width="1.628" height="1.681" transform="translate(12.676 125.383)"/>
    <path id="Path_618" data-name="Path 618" class="cls-1" d="M391.28,323.175a4.056,4.056,0,1,1-4.056-4.022A4.039,4.039,0,0,1,391.28,323.175Z" transform="translate(-345.75 -196.951)"/>
    <path id="Path_619" data-name="Path 619" class="cls-2" d="M379.39,320.2a4.863,4.863,0,1,1,4.9-4.863A4.889,4.889,0,0,1,379.39,320.2Zm0-8.045a3.182,3.182,0,1,0,3.209,3.182A3.2,3.2,0,0,0,379.39,312.156Z" transform="translate(-337.916 -189.114)"/>
    <rect id="Rectangle_1739" data-name="Rectangle 1739" class="cls-4" width="1.628" height="1.681" transform="translate(40.66 125.383)"/>
    <g id="Group_603" data-name="Group 603" transform="translate(0 108.14)">
      <rect id="Rectangle_1740" data-name="Rectangle 1740" class="cls-2" width="13.365" height="1.68"/>
      <rect id="Rectangle_1741" data-name="Rectangle 1741" class="cls-2" width="6.693" height="1.681" transform="translate(6.022 6.454)"/>
      <rect id="Rectangle_1742" data-name="Rectangle 1742" class="cls-2" width="13.292" height="1.68" transform="translate(2.93 3.228)"/>
      <rect id="Rectangle_1743" data-name="Rectangle 1743" class="cls-2" width="1.628" height="1.681" transform="translate(1.343 13.083)"/>
      <rect id="Rectangle_1744" data-name="Rectangle 1744" class="cls-2" width="1.628" height="1.68" transform="translate(16.872)"/>
      <rect id="Rectangle_1745" data-name="Rectangle 1745" class="cls-2" width="3.743" height="1.681" transform="translate(0.651 6.454)"/>
    </g>
  </g>
</svg>
