<svg xmlns="http://www.w3.org/2000/svg" width="50" height="33" viewBox="0 0 50 33">
  <defs>
    <style>
      .cls-1 {
        fill: #242d3c;
      }

      .cls-2 {
        fill: #f96232;
      }

      .cls-3 {
        fill: #fff;
      }
    </style>
  </defs>
  <g id="money_2_" data-name="money (2)" transform="translate(0 -86.872)">
    <g id="Group_606" data-name="Group 606" transform="translate(0 86.872)">
      <path id="Path_633" data-name="Path 633" class="cls-1" d="M10.713,367.379H0v-6.243H10.713ZM1.786,365.6H8.928V362.92H1.786Z" transform="translate(0 -334.379)"/>
      <path id="Path_634" data-name="Path 634" class="cls-1" d="M9.821,321.668H0v-6.244H7.978v1.784H1.786v2.676H9.821Z" transform="translate(0 -293.127)"/>
      <path id="Path_635" data-name="Path 635" class="cls-1" d="M7.978,275.951H0v-6.244H7.269v1.784H1.786v2.676H7.978Z" transform="translate(0 -251.87)"/>
      <path id="Path_636" data-name="Path 636" class="cls-1" d="M7.269,230.232H0v-6.244H7.978v1.784H1.786v2.677H7.269Z" transform="translate(0 -210.611)"/>
      <path id="Path_637" data-name="Path 637" class="cls-1" d="M413.012,367.379H402.3v-6.243h10.713Zm-8.927-1.784h7.141V362.92h-7.141Z" transform="translate(-363.012 -334.379)"/>
      <path id="Path_638" data-name="Path 638" class="cls-1" d="M413.012,321.668H402.3v-6.244h10.713Zm-8.927-1.784h7.141v-2.676h-7.141Z" transform="translate(-363.012 -293.127)"/>
      <path id="Path_639" data-name="Path 639" class="cls-1" d="M321.592,367.379H310.879v-6.243h10.714Zm-8.928-1.784h7.142V362.92h-7.142Z" transform="translate(-280.52 -334.379)"/>
      <path id="Path_640" data-name="Path 640" class="cls-1" d="M329.844,321.668h-9.82v-1.784h8.035v-2.676h-6.052v-1.784h7.838Z" transform="translate(-288.771 -293.127)"/>
      <path id="Path_641" data-name="Path 641" class="cls-1" d="M348.164,275.951h-7.838v-1.784h6.052v-2.676h-5.223v-1.784h7.009Z" transform="translate(-307.091 -251.87)"/>
      <path id="Path_642" data-name="Path 642" class="cls-1" d="M348.164,230.242h-7.009v-1.784h5.223v-2.675h-6.052V224h7.838Z" transform="translate(-307.091 -210.621)"/>
      <path id="Path_643" data-name="Path 643" class="cls-1" d="M329.844,184.538h-7.838v-1.784h6.052v-2.675h-8.035v-1.784h9.82Z" transform="translate(-288.771 -169.376)"/>
      <path id="Path_644" data-name="Path 644" class="cls-1" d="M321.592,138.825H310.879v-6.244h10.714Zm-8.928-1.784h7.142v-2.676h-7.142Z" transform="translate(-280.52 -128.122)"/>
      <path id="Path_645" data-name="Path 645" class="cls-1" d="M321.592,93.115H310.879V86.872h10.714Zm-8.928-1.784h7.142V88.656h-7.142Z" transform="translate(-280.52 -86.872)"/>
    </g>
    <path id="Path_646" data-name="Path 646" class="cls-2" d="M128.251,186.042A10.044,10.044,0,1,1,118.2,176.009,10.042,10.042,0,0,1,128.251,186.042Z" transform="translate(-97.6 -80.441)"/>
    <path id="Path_647" data-name="Path 647" class="cls-1" d="M79.023,161.12a14.27,14.27,0,1,1,14.287-14.271A14.293,14.293,0,0,1,79.023,161.12Zm0-26.757a12.487,12.487,0,1,0,12.5,12.486A12.506,12.506,0,0,0,79.023,134.363Z" transform="translate(-58.418 -41.248)"/>
    <g id="Group_607" data-name="Group 607" transform="translate(16.811 99.513)">
      <path id="Path_648" data-name="Path 648" class="cls-3" d="M176.667,235.617h-1.451a3.061,3.061,0,0,1-3.068-3.068h1.786a1.294,1.294,0,0,0,.378.914,1.281,1.281,0,0,0,.9.369h1.451a1.279,1.279,0,0,0,1.286-1.284,1.274,1.274,0,0,0-.376-.906,1.29,1.29,0,0,0-.91-.375h-1.451a3.066,3.066,0,1,1,0-6.133h1.451a3.064,3.064,0,0,1,3.072,3.067h-1.786a1.285,1.285,0,0,0-.378-.911,1.3,1.3,0,0,0-.908-.371h-1.451a1.284,1.284,0,0,0-.906,2.192,1.278,1.278,0,0,0,.906.372h1.451a3.066,3.066,0,1,1,0,6.133Z" transform="translate(-172.148 -224.288)"/>
      <rect id="Rectangle_1753" data-name="Rectangle 1753" class="cls-3" width="1.786" height="1.74" transform="translate(2.901)"/>
      <rect id="Rectangle_1754" data-name="Rectangle 1754" class="cls-3" width="1.786" height="1.741" transform="translate(2.901 10.437)"/>
    </g>
  </g>
</svg>
