<svg xmlns="http://www.w3.org/2000/svg" width="40" height="38" viewBox="0 0 40 38">
  <defs>
    <style>
      .cls-1 {
        fill: #242d3c;
      }

      .cls-2 {
        fill: #43d3e8;
      }

      .cls-3 {
        fill: #fff;
      }
    </style>
  </defs>
  <g id="piggy-bank_1_" transform="translate(0 -12.064)">
    <g id="Group_604" data-name="Group 604" transform="translate(0 12.064)">
      <path id="Path_620" data-name="Path 620" class="cls-1" d="M87.425,111.372h-1.5v-5.748h.752a4.9,4.9,0,0,1,3.485,1.44,4.991,4.991,0,0,1,.9,1.216l-1.332.7a3.486,3.486,0,0,0-.626-.852,3.4,3.4,0,0,0-1.67-.919v4.167h0Z" transform="translate(-79.209 -98.337)"/>
      <path id="Path_621" data-name="Path 621" class="cls-1" d="M28.084,136.339a3,3,0,0,1-2.85-2.036,20.856,20.856,0,0,1-9.866,0,3.009,3.009,0,0,1-5.858-.961v-1.57a14.949,14.949,0,0,1-5.66-6.592H0v-9.831H3.849a15.5,15.5,0,0,1,7.454-7.629l.679,1.338a13.872,13.872,0,0,0-6.92,7.3l-.184.486H1.5v6.833H4.878l.184.485a13.45,13.45,0,0,0,5.6,6.562l.352.22v2.393a1.5,1.5,0,0,0,3.008.017l.01-.991.953.279a19.2,19.2,0,0,0,10.633,0l.952-.277.011.989a1.5,1.5,0,0,0,3.007-.019v-2.388l.353-.22a12.843,12.843,0,0,0,6.24-9.1l.082-.657h1.521a.709.709,0,1,0,0-1.419H36.263l-.082-.657c-.841-6.711-7.665-11.771-15.873-11.771a18.885,18.885,0,0,0-5.8.9l-.462-1.427a20.392,20.392,0,0,1,6.261-.969c8.7,0,15.988,5.3,17.265,12.428h.211a2.208,2.208,0,1,1,0,4.417h-.212a14.391,14.391,0,0,1-6.48,9.305v1.564a3.005,3.005,0,0,1-3.008,3Z" transform="translate(0 -98.34)"/>
      <path id="Path_622" data-name="Path 622" class="cls-1" d="M145.073,111.378h-1.5v-.833a3.421,3.421,0,0,0-2.673-3.332v4.165h-1.5v-5.746h.752a4.921,4.921,0,0,1,4.929,4.913v.834h0Z" transform="translate(-128.502 -98.344)"/>
      <path id="Path_623" data-name="Path 623" class="cls-1" d="M116.955,213.432h-1.5a.752.752,0,0,0-1.5,0h-1.5a2.256,2.256,0,0,1,4.511,0Z" transform="translate(-103.659 -195.674)"/>
      <path id="Path_624" data-name="Path 624" class="cls-1" d="M220.879,18.662a3.3,3.3,0,1,1,3.308-3.3A3.308,3.308,0,0,1,220.879,18.662Zm0-5.1a1.8,1.8,0,1,0,1.8,1.8A1.8,1.8,0,0,0,220.879,13.563Z" transform="translate(-200.574 -12.064)"/>
    </g>
    <path id="Path_625" data-name="Path 625" class="cls-2" d="M198.21,226.045a5.714,5.714,0,1,1-5.715-5.7A5.708,5.708,0,0,1,198.21,226.045Z" transform="translate(-172.19 -192.061)"/>
    <path id="Path_626" data-name="Path 626" class="cls-3" d="M221.256,270.642l-2.663-2.655,1.063-1.06,1.6,1.6,2.732-2.724,1.063,1.06Z" transform="translate(-201.516 -233.971)"/>
  </g>
</svg>
