<svg xmlns="http://www.w3.org/2000/svg" width="30" height="30" viewBox="0 0 23 30">
  <defs>
    <style>
      .cls-1 {
        fill: #F07057;
      }
    </style>
  </defs>
  <g id="bill" transform="translate(-870 -566)">
    <g id="Group_549" data-name="Group 549" transform="translate(870 566)">
      <path id="Path_568" data-name="Path 568" class="cls-1" d="M86.626.177A.961.961,0,0,0,85.764.05L80.347,1.816,75.882.069a.97.97,0,0,0-.711,0L70.7,1.816,65.286.05a.96.96,0,0,0-.863.127.934.934,0,0,0-.4.761V29.061a.923.923,0,0,0,.4.759.988.988,0,0,0,.864.129L70.7,28.183l4.468,1.747a.952.952,0,0,0,.711,0l4.466-1.747,5.416,1.766a.972.972,0,0,0,.3.049.958.958,0,0,0,.56-.178.923.923,0,0,0,.4-.759V.938A.929.929,0,0,0,86.626.177ZM68.817,5.626h7.667a.938.938,0,1,1,0,1.875H68.817a.938.938,0,1,1,0-1.875Zm5.75,15h-5.75a.938.938,0,1,1,0-1.875h5.75a.938.938,0,1,1,0,1.875Zm0-5.624h-5.75a.938.938,0,1,1,0-1.875h5.75a.938.938,0,1,1,0,1.875Zm6.708,7.355v1.082a.959.959,0,0,1-1.917,0V22.37a3.127,3.127,0,0,1-.859-.384.927.927,0,0,1-.265-1.3.976.976,0,0,1,1.33-.259,1.379,1.379,0,0,0,.751.2c.587,0,.958-.307.958-.469s-.372-.469-.958-.469a2.654,2.654,0,0,1-2.875-2.344,2.426,2.426,0,0,1,1.917-2.2V14.062a.959.959,0,0,1,1.917,0v1.067a3.1,3.1,0,0,1,.859.384.925.925,0,0,1,.265,1.3.972.972,0,0,1-1.33.259,1.369,1.369,0,0,0-.751-.2c-.586,0-.958.307-.958.469s.372.469.958.469a2.654,2.654,0,0,1,2.875,2.344A2.426,2.426,0,0,1,81.275,22.355Zm.958-11.1H68.817a.938.938,0,1,1,0-1.875H82.233a.938.938,0,1,1,0,1.875Z" transform="translate(-64.025 0)"/>
    </g>
  </g>
</svg>
