<svg id="cart" xmlns="http://www.w3.org/2000/svg" width="25" height="25" viewBox="0 0 25 25">
  <defs>
    <style>
      .cls-1 {
        fill: #f07057;
      }
    </style>
  </defs>
  <path class="cls-1" d="M7.5,20A2.5,2.5,0,1,0,10,22.5,2.507,2.507,0,0,0,7.5,20ZM0,0V2.5H2.5L7,12,5.25,15A4.441,4.441,0,0,0,5,16.25a2.507,2.507,0,0,0,2.5,2.5h15v-2.5H8A.269.269,0,0,1,7.75,16v-.125L8.875,13.75h9.25A2.28,2.28,0,0,0,20.25,12.5l4.5-8.125A.688.688,0,0,0,25,3.75,1.181,1.181,0,0,0,23.75,2.5H5.25L4.125,0ZM20,20a2.5,2.5,0,1,0,2.5,2.5A2.507,2.507,0,0,0,20,20Z"/>
</svg>
