<svg xmlns="http://www.w3.org/2000/svg" viewBox="0 0 42 44"><g id="bag" transform="translate(-200 -2016)"><path id="Union_4" data-name="Union 4" class="cls-1" d="M-1039.109-1962H-1055v-34.516h6.946v-1.847a7.548,7.548,0,0,1,2.261-5.4,7.711,7.711,0,0,1,5.459-2.237,7.708,7.708,0,0,1,5.458,2.237,7.543,7.543,0,0,1,2.261,5.4v1.848h6.947v10.671H-1013V-1962Zm.773-1.529h23.791v-20.786h-23.791Zm-15.118,0h13.573v-22.315h12.668v-9.142h-5.4v2.864a2.281,2.281,0,0,1,1.528,2.144,2.291,2.291,0,0,1-2.3,2.277,2.292,2.292,0,0,1-2.3-2.277,2.281,2.281,0,0,1,1.528-2.144v-2.864h-12.347v2.864a2.282,2.282,0,0,1,1.527,2.144,2.292,2.292,0,0,1-2.3,2.277,2.292,2.292,0,0,1-2.3-2.277,2.281,2.281,0,0,1,1.528-2.144v-2.864h-5.4Zm19.311-26.449a.753.753,0,0,0,.756.747.752.752,0,0,0,.755-.747.752.752,0,0,0-.755-.748A.753.753,0,0,0-1034.143-1989.978Zm-13.893,0a.753.753,0,0,0,.756.747.752.752,0,0,0,.755-.747.752.752,0,0,0-.755-.748A.753.753,0,0,0-1048.036-1989.978Zm3.336-12.7a6.037,6.037,0,0,0-1.807,4.319v1.847h12.347v-1.847a6.034,6.034,0,0,0-1.808-4.319,6.168,6.168,0,0,0-4.365-1.789A6.169,6.169,0,0,0-1044.7-2002.682Zm13.433,31.081a6.674,6.674,0,0,1-2-4.775v-1a2.3,2.3,0,0,1-1.547-2.162,2.309,2.309,0,0,1,2.319-2.293,2.308,2.308,0,0,1,2.318,2.293,2.3,2.3,0,0,1-1.544,2.162v1a5.159,5.159,0,0,0,1.546,3.693,5.275,5.275,0,0,0,3.732,1.53,5.274,5.274,0,0,0,3.734-1.53,5.162,5.162,0,0,0,1.545-3.693v-1a2.3,2.3,0,0,1-1.544-2.162,2.307,2.307,0,0,1,2.317-2.293,2.309,2.309,0,0,1,2.319,2.293,2.3,2.3,0,0,1-1.547,2.162v1a6.674,6.674,0,0,1-2,4.775,6.819,6.819,0,0,1-4.827,1.977A6.818,6.818,0,0,1-1031.267-1971.6Zm10.106-7.935a.769.769,0,0,0,.771.765.771.771,0,0,0,.774-.765.771.771,0,0,0-.774-.765A.769.769,0,0,0-1021.161-1979.536Zm-12.106,0a.77.77,0,0,0,.773.765.77.77,0,0,0,.772-.765.77.77,0,0,0-.772-.765A.77.77,0,0,0-1033.267-1979.536Z" transform="translate(1255 4022)"/></g></svg>
