<svg xmlns="http://www.w3.org/2000/svg" viewBox="0 0 42 41.999"><path id="Union_3" data-name="Union 3" class="cls-1" d="M-746.8-1968v-7.8h7.8v7.8Zm1.428-1.428h4.942v-4.942h-4.942ZM-781-1968v-7.8h7.8v7.8Zm1.428-1.428h4.943v-4.942h-4.943Zm30.181-1.757v-1.428h1.415v1.428Zm-2.829,0v-1.428h1.414v1.428Zm-2.83,0v-1.428h1.415v1.428Zm-2.83,0v-1.428h1.415v1.428Zm-2.829,0v-1.428h1.415v1.428Zm-2.83,0v-1.428h1.414v1.428Zm-2.83,0v-1.428h1.415v1.428Zm-2.83,0v-1.428h1.415v1.428Zm-2.829,0v-1.428h1.415v1.428Zm28.41-5.79v-1.415h1.428v1.415Zm-34.2,0v-1.415h1.428v1.415Zm34.2-2.83v-1.415h1.428v1.415Zm-34.2,0v-1.415h1.428v1.415Zm34.2-2.83v-1.415h1.428v1.415Zm-34.2,0v-1.415h1.428v1.415Zm13.915-2.466v-7.8h7.8v7.8Zm1.428-1.428h4.942v-4.943h-4.942Zm18.857,1.066v-1.415h1.428v1.415Zm-34.2,0v-1.415h1.428v1.415Zm34.2-2.83v-1.415h1.428v1.415Zm-34.2,0v-1.415h1.428v1.415Zm34.2-2.83v-1.415h1.428v1.415Zm-34.2,0v-1.415h1.428v1.415Zm34.2-2.83v-1.415h1.428v1.415Zm-34.2,0v-1.415h1.428v1.415Zm34.2-2.83v-1.415h1.428v1.415Zm-34.2,0v-1.415h1.428v1.415Zm34.2-2.83v-1.414h1.428v1.414Zm-34.2,0v-1.414h1.428v1.414Zm31.016-2.59v-7.8h7.8v7.8Zm1.428-1.428h4.942v-4.943h-4.942ZM-781-2002.2v-7.8h7.8v7.8Zm1.428-1.428h4.943v-4.943h-4.943Zm30.181-1.758v-1.427h1.415v1.427Zm-2.829,0v-1.427h1.414v1.427Zm-2.83,0v-1.427h1.415v1.427Zm-2.83,0v-1.427h1.415v1.427Zm-2.829,0v-1.427h1.415v1.427Zm-2.83,0v-1.427h1.414v1.427Zm-2.83,0v-1.427h1.415v1.427Zm-2.83,0v-1.427h1.415v1.427Zm-2.829,0v-1.427h1.415v1.427Z" transform="translate(781 2010)"/></svg>
