<svg xmlns="http://www.w3.org/2000/svg" width="42" height="43" viewBox="0 0 42 43">
  <g id="Symbol_15_2" data-name="Symbol 15 – 2" transform="translate(-187.592 -2045.13)">
    <path id="Union_1" data-name="Union 1" class="cls-1" d="M-180.041-2001.03v-5.52l-7.551-5,6.994-4.625-6.993-4.63,14-9.266,4.6,3.042-.767,1.143-3.83-2.534L-185.1-2020.8l5.747,3.8,9.595-6.352.768,1.143h0v0l-9.112,6.031,11.508,7.614,6.622-4.379,4.888-3.235-9.114-6.033.768-1.143,9.595,6.352,5.747-3.8-11.513-7.615-3.83,2.531-.767-1.143,4.6-3.039,14.007,9.266-6.995,4.63,6.995,4.625-7.551,5v5.52l-13.449,8.9Zm1.383-.735,11.375,7.528v-12.214l-6.305,4.173-5.07-3.355Zm12.758,7.526,11.372-7.526v-3.869l-5.072,3.356-6.3-4.171Zm5.451-16.734-4.9,3.24,5.747,3.8,11.512-7.62-5.747-3.8Zm-24.649-.575,11.509,7.62,5.749-3.8-11.37-7.522-.141-.093h0Zm17.815-6.948V-2032.5l-1.9,1.885-.978-.971,3.569-3.542,3.568,3.542-.978.971-1.9-1.883v14Z" transform="translate(375.184 4080.26)"/>
  </g>
</svg>
