<svg xmlns="http://www.w3.org/2000/svg" width="30" height="30" viewBox="0 0 30 26">
  <defs>
    <style>
      path {
        fill: #F07057;
      }
    </style>
  </defs>
  <g id="credit-card" transform="translate(-807 -569)">
    <g id="Group_544" data-name="Group 544" transform="translate(807 574.571)">
      <g id="Group_543" data-name="Group 543" transform="translate(0 0)">
        <path id="Path_565" data-name="Path 565" class="cls-1" d="M13.125,129.849v-1.857H1.875A1.869,1.869,0,0,0,0,129.849v3.714H13.521A16.477,16.477,0,0,1,13.125,129.849Z" transform="translate(0 -127.992)"/>
      </g>
    </g>
    <g id="Group_546" data-name="Group 546" transform="translate(807 583.857)">
      <g id="Group_545" data-name="Group 545" transform="translate(0 0)">
        <path id="Path_566" data-name="Path 566" class="cls-1" d="M29.923,287.992a16.814,16.814,0,0,1-6.022,5.2,2.841,2.841,0,0,1-2.8,0,16.9,16.9,0,0,1-6.024-5.206H0v9.286a1.868,1.868,0,0,0,1.875,1.857h26.25A1.867,1.867,0,0,0,30,297.278v-9.286ZM8.438,293.564H4.688a.929.929,0,1,1,0-1.857h3.75a.929.929,0,1,1,0,1.857Z" transform="translate(0 -287.992)"/>
      </g>
    </g>
    <g id="Group_548" data-name="Group 548" transform="translate(822 569)">
      <g id="Group_547" data-name="Group 547" transform="translate(0 0)">
        <path id="Path_567" data-name="Path 567" class="cls-1" d="M270.432,34.869l-6.563-2.786a.949.949,0,0,0-.741,0l-6.562,2.786a.926.926,0,0,0-.566.852v3.714c0,5.109,1.907,8.1,7.033,11.021a.95.95,0,0,0,.934,0c5.126-2.918,7.033-5.9,7.033-11.021V35.721A.925.925,0,0,0,270.432,34.869Zm-3.386,4.22-3.75,4.643a.951.951,0,0,1-.733.347h-.039a.943.943,0,0,1-.741-.412l-1.875-2.786a.922.922,0,0,1,.261-1.287.943.943,0,0,1,1.3.258l1.164,1.729,2.947-3.651a.948.948,0,0,1,1.318-.145A.923.923,0,0,1,267.046,39.089Z" transform="translate(-256 -32.008)"/>
      </g>
    </g>
  </g>
</svg>
