<svg xmlns="http://www.w3.org/2000/svg" width="20" height="20" viewBox="0 0 15 15">
  <defs>
    <style>
      .cls-1 {
        fill: #6bbb5f;
      }

      .cls-2 {
        fill: #fafafa;
      }
    </style>
  </defs>
  <g id="discount_percent" transform="translate(-0.01 0)">
    <path  class="cls-1" d="M14.321,7.5l.658-1.716a.469.469,0,0,0-.142-.532L13.41,4.094l-.289-1.816a.469.469,0,0,0-.39-.389L10.915,1.6,9.759.173A.469.469,0,0,0,9.228.031L7.51.69,5.794.032a.468.468,0,0,0-.532.142L4.105,1.6,2.29,1.89a.47.47,0,0,0-.389.389L1.612,4.1.184,5.252a.469.469,0,0,0-.142.532L.7,7.5.042,9.217a.468.468,0,0,0,.142.532L1.612,10.9,1.9,12.72a.469.469,0,0,0,.389.39l1.816.289,1.157,1.427a.466.466,0,0,0,.532.142l1.716-.657,1.717.658a.469.469,0,0,0,.532-.143L10.915,13.4l1.816-.289a.47.47,0,0,0,.39-.39L13.41,10.9l1.427-1.156a.468.468,0,0,0,.142-.532Z" transform="translate(0 0)"/>
    <path class="cls-2" d="M-4117.875-492.666a1.409,1.409,0,0,1,1.406-1.406,1.409,1.409,0,0,1,1.407,1.406,1.408,1.408,0,0,1-1.407,1.406A1.408,1.408,0,0,1-4117.875-492.666Zm.938,0a.47.47,0,0,0,.468.468.47.47,0,0,0,.469-.468.47.47,0,0,0-.469-.469A.47.47,0,0,0-4116.937-492.666Zm-3.554,1.32a.469.469,0,0,1-.108-.655l4.688-6.562a.468.468,0,0,1,.653-.11.468.468,0,0,1,.109.654l-4.687,6.562a.47.47,0,0,1-.382.2A.466.466,0,0,1-4120.491-491.346Zm-.2-6.006a1.409,1.409,0,0,1,1.406-1.406,1.408,1.408,0,0,1,1.407,1.406,1.408,1.408,0,0,1-1.407,1.406A1.409,1.409,0,0,1-4120.688-497.353Zm.938,0a.469.469,0,0,0,.468.468.469.469,0,0,0,.47-.468.469.469,0,0,0-.47-.468A.469.469,0,0,0-4119.75-497.353Z" transform="translate(4125.385 502.51)"/>
  </g>
</svg>
