<svg xmlns="http://www.w3.org/2000/svg" width="15" height="15" fill="white" viewBox="0 0 15 15"><g transform="translate(0 -0.439)"><path class="a" d="M5.753,9.714c1.345,1.338,2.9,2.617,3.514,2,.875-.884,1.414-1.652,3.357-.1s.459,2.6-.389,3.455c-.978.988-4.643.069-8.275-3.543S-.617,4.247.362,3.259C1.21,2.4,2.242.908,3.805,2.844s.8,2.48-.074,3.364C3.12,6.825,4.407,8.375,5.753,9.714ZM7.7,3.329a.864.864,0,0,0-.69.221.792.792,0,0,0,0,1.107.877.877,0,0,0,.439.221A3.583,3.583,0,0,1,9.514,5.937,3.6,3.6,0,0,1,10.57,8a.88.88,0,0,0,.221.44.788.788,0,0,0,1.1,0,.869.869,0,0,0,.221-.691A5.347,5.347,0,0,0,7.7,3.329Zm3.807.607a5.529,5.529,0,0,1,1.9,4.506.889.889,0,0,0,.209.71.786.786,0,0,0,1.11,0,.985.985,0,0,0,.231-.5,7.045,7.045,0,0,0-2.337-5.829A7.015,7.015,0,0,0,6.8.484a.979.979,0,0,0-.5.231.79.79,0,0,0,0,1.112.884.884,0,0,0,.709.209A5.506,5.506,0,0,1,11.511,3.936Z" transform="translate(0 0)"/></g></svg>