<svg xmlns="http://www.w3.org/2000/svg" viewBox="0 0 19 19">
  <defs>
    <style>
      .cls-1 {
        fill: #bcbccb;
      }
    </style>
  </defs>
  <g>
  <g id="full-size" transform="translate(-640 -322)">
    <path id="Path_542" data-name="Path 542" class="cls-1" d="M.662,5.744a.662.662,0,0,0,.662-.662V2.261L5.585,6.522a.662.662,0,1,0,.936-.936L2.259,1.325H5.081A.662.662,0,1,0,5.081,0H.662A.662.662,0,0,0,0,.664V5.083A.662.662,0,0,0,.662,5.744Z" transform="translate(640 321.998)"/>
    <path id="Path_543" data-name="Path 543" class="cls-1" d="M143.939,138.856a.662.662,0,0,0-.662.662v2.821l-4.393-4.393a.662.662,0,0,0-.936.936l4.393,4.393H139.52a.662.662,0,1,0,0,1.323h4.419a.662.662,0,0,0,.662-.662v-4.419A.662.662,0,0,0,143.939,138.856Z" transform="translate(514.399 196.401)"/>
    <path id="Path_544" data-name="Path 544" class="cls-1" d="M5.721,137.946l-4.393,4.393v-2.821a.662.662,0,1,0-1.323,0v4.419a.662.662,0,0,0,.662.662H5.086a.662.662,0,1,0,0-1.323H2.264l4.393-4.393a.662.662,0,0,0-.936-.936Z" transform="translate(639.995 196.401)"/>
    <path id="Path_545" data-name="Path 545" class="cls-1" d="M145.3,0h-4.419a.662.662,0,1,0,0,1.323H143.7l-4.261,4.262a.662.662,0,0,0,.936.936l4.261-4.262V5.083a.662.662,0,1,0,1.323,0V.664A.662.662,0,0,0,145.3,0Z" transform="translate(513.037 321.998)"/>
  </g>
  </g>
</svg>
