<svg xmlns="http://www.w3.org/2000/svg" width="15" height="18" viewBox="0 0 15 18">
  <defs>
    <style>
      .cls-1 {
        fill: #fff;
      }

      .cls-2 {
        fill: #f07057;
      }
    </style>
  </defs>
  <g id="invoice" transform="translate(-565 -479)">
    <g id="Group_587" data-name="Group 587" transform="translate(565 479)">
      <g id="XMLID_2160_" transform="translate(3.903 4.418)">
        <path id="XMLID_2161_" class="cls-1" d="M154.726,132.562l.685-.685.685.685.685.685.685-.685V121.189A1.189,1.189,0,0,0,156.276,120H146.7a1.189,1.189,0,0,1,1.189,1.189v11.369l.685.685.685-.685.685-.685.685.685.685.685.685-.685.685-.685.685.685.685.685Z" transform="translate(-146.7 -120)"/>
      </g>
      <path id="Path_600" data-name="Path 600" class="cls-2" d="M216.435,181.47h6.229a.335.335,0,1,0,0-.67h-6.229a.335.335,0,0,0,0,.67Z" transform="translate(-209.642 -174.143)"/>
      <path id="Path_601" data-name="Path 601" class="cls-2" d="M216.435,229.77h4.525a.335.335,0,0,0,0-.67h-4.525a.335.335,0,0,0,0,.67Z" transform="translate(-209.642 -220.665)"/>
      <path id="Path_602" data-name="Path 602" class="cls-2" d="M216.435,274.07h6.229a.335.335,0,1,0,0-.67h-6.229a.335.335,0,0,0,0,.67Z" transform="translate(-209.642 -263.334)"/>
      <path id="Path_603" data-name="Path 603" class="cls-2" d="M217.028,323.9h-.593a.335.335,0,0,0,0,.67h.593a.335.335,0,1,0,0-.67Z" transform="translate(-209.642 -311.975)"/>
      <path id="Path_604" data-name="Path 604" class="cls-2" d="M217.028,368.2h-.593a.335.335,0,0,0,0,.67h.593a.335.335,0,1,0,0-.67Z" transform="translate(-209.642 -354.644)"/>
      <path id="Path_605" data-name="Path 605" class="cls-2" d="M273.039,323.9h-4.3a.335.335,0,0,0,0,.67h4.3a.335.335,0,0,0,0-.67Z" transform="translate(-260.017 -311.975)"/>
      <path id="Path_606" data-name="Path 606" class="cls-2" d="M271.666,368.435a.336.336,0,0,0-.335-.335h-2.6a.335.335,0,0,0,0,.67h2.6A.336.336,0,0,0,271.666,368.435Z" transform="translate(-260.017 -354.548)"/>
      <path id="Path_607" data-name="Path 607" class="cls-1" d="M51.708,17.9a.336.336,0,0,0,.471,0l1.134-1.134L54.448,17.9a.329.329,0,0,0,.471,0l.685-.685a.335.335,0,0,0,.1-.236V5.607a1.521,1.521,0,0,0-1.521-1.521H51.624V.335A.336.336,0,0,0,51.289,0H41.035A.336.336,0,0,0,40.7.335V11.7a1.521,1.521,0,0,0,1.521,1.521H44.15a.335.335,0,0,0,0-.67h-.67a1.514,1.514,0,0,0,.265-.854V5.607a.854.854,0,1,1,1.708,0V16.976a.405.405,0,0,0,.007.066c0,.015.007.026.011.04s0,.015.007.022a.4.4,0,0,0,.022.04s0,.011.007.015a.278.278,0,0,0,.041.052l.685.685a.336.336,0,0,0,.471,0l1.134-1.134L48.973,17.9a.336.336,0,0,0,.471,0l1.134-1.134ZM43.078,5.607v6.1a.854.854,0,1,1-1.708,0V.666h9.587v3.42H44.6A1.521,1.521,0,0,0,43.078,5.607Zm6.13,11.583-1.134-1.134a.329.329,0,0,0-.471,0L46.469,17.19l-.35-.35V5.607c0-.048,0-.1-.007-.14,0-.015,0-.026,0-.04a.924.924,0,0,0-.015-.1c0-.015,0-.026-.007-.04a.786.786,0,0,0-.033-.125s0,0,0-.007A1.261,1.261,0,0,0,46,5.029a.38.38,0,0,1-.015-.037c-.015-.029-.026-.059-.044-.088a.342.342,0,0,1-.018-.037c-.018-.033-.04-.07-.063-.1,0,0,0-.007-.007-.011v0h8.317a.855.855,0,0,1,.854.854V16.84l-.35.35-1.134-1.134a.336.336,0,0,0-.471,0L51.937,17.19l-1.123-1.13a.336.336,0,0,0-.471,0Z" transform="translate(-40.7)"/>
    </g>
  </g>
</svg>
