<svg xmlns="http://www.w3.org/2000/svg" viewBox="0 0 160 28"><defs><style>.a{fill:#f07057;fill-rule:evenodd;}.b{fill:#707070;}.c{fill:#484848;}.d{fill:none;stroke:#484848;stroke-width:2.5px;}</style></defs><g transform="translate(-165 -19.571)"><g transform="translate(0 -0.429)"><g transform="translate(165 20)"><path class="a" d="M8.246,24.078l2.9-1.618A21.643,21.643,0,0,1,9.82,14.869a21.643,21.643,0,0,1,1.322-7.591L8.246,5.66a25.038,25.038,0,0,0-1.7,9.271,24.858,24.858,0,0,0,1.7,9.147M2.518,27.313A31.95,31.95,0,0,1,0,14.807,31.95,31.95,0,0,1,2.518,2.3l2.9,1.68a28.77,28.77,0,0,0,0,21.778Z" transform="translate(0 -0.869)"/><path class="a" d="M88.833,24.078,86,22.46a21.643,21.643,0,0,0,1.322-7.591A21.642,21.642,0,0,0,86,7.278L88.9,5.66a25.357,25.357,0,0,1-.063,18.418m5.728,3.236a31.95,31.95,0,0,0,2.518-12.507A31.95,31.95,0,0,0,94.561,2.3L91.728,3.98a28.77,28.77,0,0,1,0,21.778Z" transform="translate(-31.864 -0.869)"/><path class="a" d="M42.2,9.333C36.79,6.222,31.314,3.111,25.9,0V9.333L34.083,14v9.333L25.9,28V18.667L34.083,14l8.183,4.667L50.45,14l8.183-4.667V0Zm16.3,18.6V18.6c-2.707-1.556-5.414-3.111-8.183-4.667v9.333Z" transform="translate(-9.596)"/><path class="b" d="M21.1,23.269V19.1h.881v3.484h2.14v.684Z" transform="translate(-7.818 -7.216)"/><path class="b" d="M78.581,20.842h.629c.441,0,.692,0,.755-.062a.868.868,0,0,0,.252-.187.462.462,0,0,0,.063-.311.877.877,0,0,0-.126-.373,1.379,1.379,0,0,0-.315-.187H78.518v1.12ZM77.7,23.269V19.1h1.826a3.988,3.988,0,0,1,1.007.124.978.978,0,0,1,.5.373,1.383,1.383,0,0,1-.063,1.493,1.43,1.43,0,0,1-.818.373,2.729,2.729,0,0,1,.441.373c.126.124.252.373.5.684l.5.809H80.6l-.629-.933c-.252-.311-.378-.56-.441-.622s-.189-.124-.252-.187a1.4,1.4,0,0,0-.5-.062h-.189v1.742Z" transform="translate(-28.789 -7.216)"/></g><g transform="translate(239.719 21.898)"><path class="c" d="M199.2,17.241h-3.454V27.426h-2.8V17.241h-3.454V14.968h9.7Zm-16.448-.084v3.872h1.069c1.48,0,2.22-.673,2.22-1.936s-.74-1.936-2.22-1.936Zm0,5.976v4.293h-2.714V14.968h4.276c3.043,0,4.605,1.347,4.605,3.956a3.72,3.72,0,0,1-1.316,3.03,5.292,5.292,0,0,1-3.536,1.178Zm-4.276,4.293h-2.961c-.987-3.03-1.892-6.061-2.8-9.091-.082-.337-.164-.673-.247-1.094h-.082a2.643,2.643,0,0,1-.247,1.094c-.987,3.03-1.809,6.145-2.8,9.175h-2.961l4.441-12.458h3.29Zm-13.487,0h-2.714V20.019c0-.842,0-1.684.082-2.694h-.082a9.729,9.729,0,0,1-.411,1.684l-2.878,8.5h-2.22l-2.878-8.418a13.985,13.985,0,0,1-.411-1.768h0c.082,1.263.082,2.273.082,3.2v6.9h-2.467V14.968h4.03l2.467,7.407A13.71,13.71,0,0,1,158,24.143h.082q.247-1.01.493-1.768l2.467-7.407h3.947Zm-24.425-.421V24.564a5.646,5.646,0,0,0,3.29,1.01c1.563,0,2.3-.589,2.3-1.684,0-1.178-.822-1.684-2.549-1.684h-1.562V20.019h1.48c1.48,0,2.22-.505,2.22-1.6,0-1.01-.658-1.515-1.892-1.515a6.306,6.306,0,0,0-2.961.926V15.558a7.984,7.984,0,0,1,3.454-.758,4.953,4.953,0,0,1,3.125.842,2.739,2.739,0,0,1,1.069,2.273,3.036,3.036,0,0,1-2.467,3.03h0a3.157,3.157,0,0,1,2.056.926,2.7,2.7,0,0,1,.74,1.936,3.4,3.4,0,0,1-1.234,2.778,5.748,5.748,0,0,1-3.7,1.01A6.588,6.588,0,0,1,140.563,27.005Zm-.493-12.037L136.2,23.554a10.49,10.49,0,0,1-2.056,3.283,3.327,3.327,0,0,1-2.385.842,4.059,4.059,0,0,1-1.562-.253V24.817a2.426,2.426,0,0,0,1.48.505c.658,0,1.316-.589,1.809-1.683l-4.03-8.67h3.125l2.056,4.966a4.527,4.527,0,0,1,.247,1.01h0a4.821,4.821,0,0,1,.329-1.01l1.974-5.05h2.878ZM127.9,27.426h-2.714V20.019c0-.842,0-1.684.082-2.694h-.082a9.738,9.738,0,0,1-.411,1.684l-2.878,8.5h-2.138l-2.878-8.418a13.986,13.986,0,0,1-.411-1.768h-.082c.082,1.263.082,2.273.082,3.2v6.9H114V14.968h4.03l2.467,7.407a13.725,13.725,0,0,1,.411,1.768h.082q.247-1.01.493-1.768l2.467-7.407H127.9Z" transform="translate(-114 -14.8)"/><path class="c" d="M133.079,41.313h-.987l-2.3-2.862c-.082-.084-.164-.168-.164-.253h0v3.03h-.74V35h.74v2.946h0c0-.084.082-.168.164-.253L132.01,35h.9l-2.632,2.946Zm-4.934-6.145-1.891,4.293a5.261,5.261,0,0,1-.987,1.6,1.688,1.688,0,0,1-.987.421,1.611,1.611,0,0,1-.74-.168v-.758a1.306,1.306,0,0,0,.74.253,1.079,1.079,0,0,0,.658-.253,5.291,5.291,0,0,0,.658-.926l-2.056-4.461h.822l1.48,3.283a4.023,4.023,0,0,0,.164.421h0a3.581,3.581,0,0,0,.164-.421l1.316-3.283Zm-8.388,3.283V40.64h.987a1.292,1.292,0,0,0,.987-.337.987.987,0,0,0,.329-.842c0-.758-.493-1.094-1.48-1.094h-.822Zm0-2.609v2.02h.74a1.452,1.452,0,0,0,.9-.253.9.9,0,0,0,.329-.842c0-.589-.411-.926-1.151-.926Zm-.74,5.471V35.084h1.727a1.99,1.99,0,0,1,1.234.421,1.209,1.209,0,0,1,.493,1.01,1.727,1.727,0,0,1-.247.926,1.8,1.8,0,0,1-.74.589h0a1.422,1.422,0,0,1,.987.505,1.362,1.362,0,0,1,.329,1.01,1.529,1.529,0,0,1-.576,1.263,2.046,2.046,0,0,1-1.4.505ZM114,41.061V40.3a2.734,2.734,0,0,0,1.645.505,1.493,1.493,0,0,0,1.069-.337,1.179,1.179,0,0,0,.411-.842c0-.758-.493-1.178-1.563-1.178h-.74v-.589h.576a1.493,1.493,0,0,0,1.069-.337.987.987,0,0,0,.329-.842.828.828,0,0,0-.329-.758,1.209,1.209,0,0,0-.822-.253,2.612,2.612,0,0,0-1.48.505v-.758A3.094,3.094,0,0,1,115.727,35a2.06,2.06,0,0,1,1.316.421,1.37,1.37,0,0,1,.493,1.094,1.4,1.4,0,0,1-1.151,1.515h0a1.422,1.422,0,0,1,.987.505,1.492,1.492,0,0,1,.329,1.01,1.586,1.586,0,0,1-.576,1.347,2.417,2.417,0,0,1-1.645.505A2.065,2.065,0,0,1,114,41.061Z" transform="translate(-114 -17.997)"/><path class="c" d="M168.286,35.842h-1.727V41.4h-.74V35.842h-1.727v-.673h4.194Zm-4.77,5.471h-3.207V35.084h3.043v.758h-2.385v2.02h2.22v.673h-2.22v2.189h2.467v.589Zm-7.4-2.862V40.64h.987a1.292,1.292,0,0,0,.987-.337.987.987,0,0,0,.329-.842c0-.758-.493-1.094-1.48-1.094h-.822Zm0-2.609v2.02h.74a1.452,1.452,0,0,0,.9-.253.9.9,0,0,0,.329-.842c0-.589-.411-.926-1.151-.926h-.822Zm-.74,5.471V35.084H157.1a1.99,1.99,0,0,1,1.234.421,1.209,1.209,0,0,1,.493,1.01,1.727,1.727,0,0,1-.247.926,1.8,1.8,0,0,1-.74.589h0a1.422,1.422,0,0,1,.987.505,1.362,1.362,0,0,1,.329,1.01,1.529,1.529,0,0,1-.576,1.263,2.046,2.046,0,0,1-1.4.505h-1.809Zm-1.234-.253a3.2,3.2,0,0,1-1.645.337,2.58,2.58,0,0,1-2.056-.842,3.42,3.42,0,0,1-.74-2.273,3.207,3.207,0,0,1,.9-2.357,3,3,0,0,1,2.22-.926,3.211,3.211,0,0,1,1.4.253v.758a2.653,2.653,0,0,0-1.4-.337,2.619,2.619,0,0,0-1.727.673,2.881,2.881,0,0,0-.658,1.936,2.406,2.406,0,0,0,.576,1.768,2.083,2.083,0,0,0,1.563.673,3.094,3.094,0,0,0,1.563-.421Z" transform="translate(-120.341 -17.997)"/><path class="c" d="M208.96,35.689a2.083,2.083,0,0,0-1.562.673,3.267,3.267,0,0,0,0,3.7,1.768,1.768,0,0,0,1.48.673,2.083,2.083,0,0,0,1.563-.673,2.623,2.623,0,0,0,.576-1.852,2.851,2.851,0,0,0-.576-1.936,2.016,2.016,0,0,0-1.48-.589m-.082,5.808a2.58,2.58,0,0,1-2.056-.842,3.42,3.42,0,0,1-.74-2.273,3.162,3.162,0,0,1,.822-2.357,2.932,2.932,0,0,1,4.194-.084,3.42,3.42,0,0,1,.74,2.273,3.162,3.162,0,0,1-.822,2.357A2.82,2.82,0,0,1,208.878,41.5Zm-3.618-.168h-3.207V35.1H205.1v.758H202.71v2.02h2.22v.673h-2.22V40.74h2.467v.589ZM199.5,40.74V35.858H197.94a12.31,12.31,0,0,1-.493,2.525,10.725,10.725,0,0,1-.9,2.357Zm1.48,2.273h-.658V41.329h-4.359v1.683h-.658V40.656h.493a13.919,13.919,0,0,0,1.069-2.694,19.035,19.035,0,0,0,.493-2.862h2.878v5.556h.822v2.357Zm-6.5-1.683h-.74V36.868a2.158,2.158,0,0,1,.082-.842h0c-.082.168-.082.253-.164.421l-3.125,4.966h-.9V35.184h.74v5.3h0c.082-.168.165-.253.247-.421l3.043-4.882h.9v6.145Zm-9.128-2.862v2.189h.987a1.292,1.292,0,0,0,.987-.337.987.987,0,0,0,.329-.842c0-.758-.493-1.094-1.48-1.094h-.822Zm0-2.609v2.02h.74a1.453,1.453,0,0,0,.9-.253.9.9,0,0,0,.329-.842c0-.589-.411-.926-1.151-.926h-.822Zm-.658,5.471V35.1h1.727a1.99,1.99,0,0,1,1.234.421,1.209,1.209,0,0,1,.493,1.01,1.727,1.727,0,0,1-.247.926,1.8,1.8,0,0,1-.74.589h0a1.422,1.422,0,0,1,.987.505,1.362,1.362,0,0,1,.329,1.01,1.529,1.529,0,0,1-.576,1.263,2.046,2.046,0,0,1-1.4.505Z" transform="translate(-126.558 -18.012)"/><path class="a" d="M143.187,37.6a1.01,1.01,0,1,1-.987,1.01,1.012,1.012,0,0,1,.987-1.01" transform="translate(-119.009 -18.408)"/><path class="a" d="M178.285,37.6a1.01,1.01,0,1,1-.987,1.01.96.96,0,0,1,.987-1.01" transform="translate(-125.242 -18.408)"/><path class="d" d="M134.329,17.307h5.782" transform="translate(-78.892 -8.756)"/></g></g></g></svg>