<svg xmlns="http://www.w3.org/2000/svg" width="30" height="30" viewBox="0 0 30 30">
  <defs>
    <style>
      path {
        fill: #F07057;
      }
    </style>
  </defs>
  <g transform="translate(-777 -577)">
    <g transform="translate(-0.412 -0.424)">
      <g transform="translate(777.412 591.354)">
        <g transform="translate(0)">
          <path d="M.409,238.859a.625.625,0,0,0-.371.8l.393,1.08,2.989-2.989Z" transform="translate(-0.001 -237.75)"/>
        </g>
      </g>
      <g transform="translate(780.649 602.063)">
        <g>
          <path d="M55.257,420.513l1.8,4.95a.619.619,0,0,0,.324.353.629.629,0,0,0,.264.059.612.612,0,0,0,.216-.039l1.986-.732Z" transform="translate(-55.257 -420.513)"/>
        </g>
      </g>
      <g transform="translate(794.098 592.173)">
        <g>
          <path d="M298.059,257.388,296,251.724l-4.944,4.944,2.45-.9a.625.625,0,1,1,.432,1.172l-3.112,1.147a.624.624,0,0,1-.8-.37s0-.007,0-.011l-5.239,5.239,12.9-4.755A.623.623,0,0,0,298.059,257.388Z" transform="translate(-284.783 -251.724)"/>
        </g>
      </g>
      <g transform="translate(777.413 577.424)">
        <g transform="translate(0 0)">
          <path d="M29.835,10.189l-10-10a.625.625,0,0,0-.884,0L.2,18.939a.625.625,0,0,0,0,.884l10,10a.619.619,0,0,0,.441.184.628.628,0,0,0,.442-.183l18.749-18.75A.627.627,0,0,0,29.835,10.189Zm-22.5,7.135-2.5,2.5a.625.625,0,0,1-.885-.884l2.5-2.5a.625.625,0,0,1,.885.884Zm10.793.794a2.359,2.359,0,0,1-1.712.655,5.164,5.164,0,0,1-3.476-1.66,5.726,5.726,0,0,1-1.561-2.66,2.611,2.611,0,0,1,.556-2.529,2.6,2.6,0,0,1,2.529-.556,5.716,5.716,0,0,1,2.66,1.561C18.86,14.664,19.3,16.944,18.129,18.117Zm7.956-7.044-2.5,2.5a.625.625,0,1,1-.885-.884l2.5-2.5a.625.625,0,0,1,.885.884Z" transform="translate(-0.019 -0.006)"/>
        </g>
      </g>
    </g>
  </g>
</svg>
