<svg xmlns="http://www.w3.org/2000/svg" width="15" height="25" viewBox="0 0 15 15"><path id="Path_654" data-name="Path 654" class="cls-1" d="M7.348,11.912l2.2-2.25,1.47,1.5.735-.75V5.162a.753.753,0,0,0-.349-.637.724.724,0,0,0-.715-.034L8.136,5.8,6.285,4.538a.725.725,0,0,0-.815,0L3.621,5.8,1.064,4.49a.724.724,0,0,0-.715.034A.752.752,0,0,0,0,5.162v13.5a.756.756,0,0,0,.349.639.734.734,0,0,0,.386.111.718.718,0,0,0,.328-.079l2.557-1.3,1.85,1.258a.722.722,0,0,0,.815,0l1.849-1.258,2.558,1.3a.722.722,0,0,0,.715-.031.757.757,0,0,0,.349-.639v-3.75l-.735.75Zm-4.409-3H6.613v1.5H2.939Zm0,2.251H5.878v1.5H2.939Zm4.409,3.75H2.939v-1.5H7.348Z" transform="translate(0 -4.412)"/><path id="Path_655" data-name="Path 655" class="cls-1" d="M248.207,146.414l-1.039,1.06,2.509,2.56,3.978-4.06-1.039-1.06-2.939,3Z" transform="translate(-238.655 -139.975)"/></svg>
