<svg xmlns="http://www.w3.org/2000/svg" width="12" height="12" viewBox="0 0 12 12">
  <defs>
    <style>
      .cls-1 {
        fill: #f07057;
      }
    </style>
  </defs>
  <g id="pring" transform="translate(0 0)">
    <path id="Union_20" data-name="Union 20" class="cls-1" d="M-5205.2-278v-1.2h-.6v-.6h-1.2v-6.8h1.8V-290h8.4v3.4h1.8v6.8h-1.2v.6h-.6v1.2Zm.4-1.2v.8h7.6v-4.2h-7.6Zm6.8-5.4a1,1,0,0,0,1,1,1,1,0,0,0,1-1,1,1,0,0,0-1-1A1,1,0,0,0-5198-284.6Zm-6.8-2h7.6v-3h-7.6Zm1.4,6.6a.2.2,0,0,1-.2-.2.2.2,0,0,1,.2-.2h4.8a.2.2,0,0,1,.2.2.2.2,0,0,1-.2.2Zm0-1a.2.2,0,0,1-.2-.2.2.2,0,0,1,.2-.2h4.8a.2.2,0,0,1,.2.2.2.2,0,0,1-.2.2Zm5.8-3.6a.6.6,0,0,1,.6-.6.6.6,0,0,1,.6.6.6.6,0,0,1-.6.6A.6.6,0,0,1-5197.6-284.6Z" transform="translate(5207 290)"/>
  </g>
</svg>
