<svg xmlns="http://www.w3.org/2000/svg" width="20" height="12" viewBox="0 0 20 12">
  <defs>
    <style>
      .cls-1 {
        fill: #f07057;
      }
    </style>
  </defs>
  <path id="Path_557" data-name="Path 557" class="cls-1" d="M19.894,128.586a1.47,1.47,0,0,0-.068-.137,10.777,10.777,0,0,0-1.989-2.42l-.021-.022-.01-.011-.01-.011h-.011q-.666-.668-.843-.9a.877.877,0,0,1-.146-.887,8.309,8.309,0,0,1,.937-1.434q.427-.58.677-.931,1.8-2.519,1.562-3.219l-.062-.109a.6.6,0,0,0-.323-.181,1.561,1.561,0,0,0-.667-.027l-3,.022a.371.371,0,0,0-.208.006l-.135.033-.052.027-.041.033a.473.473,0,0,0-.115.115.762.762,0,0,0-.1.192,18.306,18.306,0,0,1-1.114,2.464q-.385.679-.708,1.177a5.634,5.634,0,0,1-.541.734,3.853,3.853,0,0,1-.4.378q-.177.143-.271.121l-.177-.044a.716.716,0,0,1-.234-.268,1.248,1.248,0,0,1-.12-.427q-.031-.258-.036-.444t.005-.526q.011-.34.01-.46,0-.416.015-.9t.026-.772q.011-.285.01-.6a2.658,2.658,0,0,0-.036-.5,1.768,1.768,0,0,0-.109-.35.583.583,0,0,0-.213-.263,1.171,1.171,0,0,0-.349-.148,6.6,6.6,0,0,0-1.406-.142,6.516,6.516,0,0,0-2.489.263,1.416,1.416,0,0,0-.4.328q-.187.241-.052.263a1.258,1.258,0,0,1,.885.471l.063.132a2.174,2.174,0,0,1,.146.5,5.332,5.332,0,0,1,.094.8,8.963,8.963,0,0,1,0,1.369q-.052.57-.1.887a1.846,1.846,0,0,1-.141.515,2.208,2.208,0,0,1-.125.241.184.184,0,0,1-.052.055.746.746,0,0,1-.281.055.642.642,0,0,1-.354-.153,2.551,2.551,0,0,1-.432-.422,5.642,5.642,0,0,1-.505-.75q-.281-.482-.583-1.139l-.167-.318q-.156-.307-.427-.892t-.479-1.134a.719.719,0,0,0-.25-.35l-.052-.033a.7.7,0,0,0-.167-.093,1.063,1.063,0,0,0-.24-.071L.667,118.3a.7.7,0,0,0-.594.208l-.042.066a.37.37,0,0,0-.031.175.91.91,0,0,0,.063.3q.625,1.544,1.359,2.979t1.276,2.31q.541.876,1.1,1.654t.744,1q.182.219.286.329l.26.263a6.255,6.255,0,0,0,.734.63,12.466,12.466,0,0,0,1.073.723,5.659,5.659,0,0,0,1.369.58,4.514,4.514,0,0,0,1.52.181h1.2a.81.81,0,0,0,.552-.241l.041-.055a.747.747,0,0,0,.078-.2,1.167,1.167,0,0,0,.036-.3,3.79,3.79,0,0,1,.068-.849,2.312,2.312,0,0,1,.177-.569,1.4,1.4,0,0,1,.224-.323.917.917,0,0,1,.177-.159.662.662,0,0,1,.083-.038.638.638,0,0,1,.589.17,3.536,3.536,0,0,1,.635.635q.3.378.713.849a5,5,0,0,0,.729.7l.208.131a2.47,2.47,0,0,0,.542.241,1.113,1.113,0,0,0,.583.055l2.666-.044a1.159,1.159,0,0,0,.614-.137.535.535,0,0,0,.26-.3.891.891,0,0,0,.005-.373A1.431,1.431,0,0,0,19.894,128.586Z" transform="translate(0 -117.748)"/>
</svg>
