<svg xmlns="http://www.w3.org/2000/svg" width="12" height="20" viewBox="0 0 12 20">
  <defs>
    <style>
      .cls-1 {
        fill: #f07057;
      }
    </style>
  </defs>
  <path id="Union_21" data-name="Union 21" class="cls-1" d="M-1691.212-2105.127a1.36,1.36,0,0,1-.784-1.252,1.253,1.253,0,0,1,.421-.841q1.708-1.707,3.411-3.419c.075-.076.145-.156.255-.273a7.765,7.765,0,0,1-4.142-1.48,5.588,5.588,0,0,1-.437-.359,1.176,1.176,0,0,1-.162-1.673,1.182,1.182,0,0,1,1.567-.353,2.4,2.4,0,0,1,.343.2,6.786,6.786,0,0,0,7.528.069,2.036,2.036,0,0,1,.733-.379,1.151,1.151,0,0,1,1.318.526,1.118,1.118,0,0,1-.08,1.47,6.08,6.08,0,0,1-2.189,1.416,10.279,10.279,0,0,1-2.485.558c.128.139.188.208.268.288,1.151,1.157,2.307,2.309,3.453,3.47a1.144,1.144,0,0,1,.257,1.346,1.363,1.363,0,0,1-1.278.8,1.244,1.244,0,0,1-.809-.414c-.868-.875-1.753-1.733-2.6-2.624-.247-.259-.366-.21-.585.015q-1.311,1.35-2.655,2.668a1.16,1.16,0,0,1-.821.368A1.192,1.192,0,0,1-1691.212-2105.127Zm4.245-9.75a5.063,5.063,0,0,1-5.014-5.073,5.068,5.068,0,0,1,5.074-5.05,5.062,5.062,0,0,1,5.028,5.127,5.054,5.054,0,0,1-5.07,5Zm-2.436-5.036a2.464,2.464,0,0,0,2.49,2.452,2.459,2.459,0,0,0,2.458-2.482,2.465,2.465,0,0,0-2.471-2.472h0A2.468,2.468,0,0,0-1689.4-2119.913Z" transform="translate(1692.926 2125)"/>
</svg>
