<?xml version="1.0" encoding="UTF-8"?>
<!DOCTYPE svg PUBLIC "-//W3C//DTD SVG 1.1//EN" "http://www.w3.org/Graphics/SVG/1.1/DTD/svg11.dtd">
<!-- Creator: CorelDRAW X8 -->
<svg xmlns="http://www.w3.org/2000/svg" xml:space="preserve" width="125.111mm" height="101.26mm" version="1.1" style="shape-rendering:geometricPrecision; text-rendering:geometricPrecision; image-rendering:optimizeQuality; fill-rule:evenodd; clip-rule:evenodd"
viewBox="0 0 44615 36109"
 xmlns:xlink="http://www.w3.org/1999/xlink">
 <defs>
  <style type="text/css">
   <![CDATA[
    .fil1 {fill:#FBBD28;fill-rule:nonzero}
    .fil0 {fill:#2C3E50;fill-rule:nonzero}
   ]]>
  </style>
 </defs>
 <g id="Слой_x0020_1">
  <metadata id="CorelCorpID_0Corel-Layer"/>
  <g id="_2969944555648">
   <path class="fil0" d="M18943 28928c-1367,0 -2472,1106 -2472,2472l-2 1965c2,247 196,445 441,461l496 0 0 -2426c0,-850 686,-1537 1537,-1537 649,0 1203,402 1428,974l976 0c-255,-1094 -1233,-1909 -2404,-1909z"/>
   <path class="fil0" d="M7918 29863c651,0 1208,405 1432,977l-2862 0c223,-572 779,-977 1430,-977zm2306 1878l140 0c17,-112 27,-225 27,-341 0,-1366 -1107,-2472 -2473,-2472 -1365,0 -2471,1106 -2471,2472 0,1366 1106,2472 2471,2472 1115,0 2055,-737 2365,-1750l-1008 0c-258,486 -769,817 -1357,817 -732,0 -1343,-512 -1498,-1198l3804 0z"/>
   <path class="fil0" d="M36751 29863c651,0 1207,405 1432,977l-2863 0c224,-572 778,-977 1431,-977zm2305 1878l142 0c14,-112 26,-225 26,-341 0,-1366 -1108,-2472 -2473,-2472 -1365,0 -2471,1106 -2471,2472 0,1366 1106,2472 2471,2472 1112,0 2054,-737 2364,-1750l-1007 0c-259,486 -769,817 -1357,817 -732,0 -1344,-512 -1500,-1198l3805 0z"/>
   <path class="fil0" d="M31288 32939c-849,0 -1537,-690 -1537,-1539 0,-850 688,-1537 1537,-1537 849,0 1537,687 1537,1537 0,849 -688,1539 -1537,1539zm2471 -1539c0,-1366 -1106,-2472 -2471,-2472 -1365,0 -2471,1106 -2471,2472 0,1366 1106,2472 2471,2472 583,0 1120,-202 1543,-541l0 307c0,849 -690,1538 -1540,1538 -650,0 -1204,-405 -1428,-973l-977 0c257,1093 1234,1906 2405,1906 1366,0 2472,-1107 2466,-2471l0 -2203c0,-13 2,-23 2,-35z"/>
   <path class="fil0" d="M22729 27871c0,258 -211,468 -468,468 -258,0 -468,-210 -468,-468 0,-256 210,-467 468,-467 257,0 468,211 468,467z"/>
   <path class="fil0" d="M28316 31400c0,-1366 -1104,-2472 -2468,-2472 -1367,0 -2474,1106 -2474,2472l0 1957c0,258 211,468 468,468l461 0 5 -2425c0,-850 688,-1537 1540,-1537 848,0 1536,687 1536,1537l0 1957c0,258 210,468 469,468l467 0 -4 -2425z"/>
   <path class="fil0" d="M42209 28928c-1364,0 -2470,1106 -2470,2472l0 1976c9,249 210,450 462,450l471 0 0 -2426c0,-850 687,-1537 1537,-1537 651,0 1206,402 1431,974l975 0c-256,-1094 -1234,-1909 -2406,-1909z"/>
   <path class="fil0" d="M2472 32939c-849,0 -1538,-690 -1538,-1539 0,-850 689,-1537 1538,-1537 850,0 1538,687 1538,1537 0,849 -688,1539 -1538,1539zm0 -4011c-595,0 -1141,210 -1570,564l0 -1900 -1 0c0,-258 -210,-466 -469,-466l0 -3 -429 0 0 4239c-1,13 -3,24 -3,38 0,1366 1107,2472 2472,2472 1365,0 2471,-1106 2471,-2472 0,-1366 -1106,-2472 -2471,-2472z"/>
   <path class="fil0" d="M21793 28963l0 4396c2,257 209,466 468,466l0 3 468 0 0 -4865 -936 0z"/>
   <path class="fil0" d="M13377 28928c-581,0 -1113,202 -1535,537l0 -1877c-1,-257 -209,-465 -468,-465l-470 0 1 6242c0,258 209,467 468,467l470 0 -1 -2510c42,-813 711,-1459 1535,-1459 849,0 1537,687 1537,1537l0 1963c0,248 195,447 441,463l491 0 2 -2426c0,-1366 -1106,-2472 -2471,-2472z"/>
   <path class="fil1" d="M20404 1275l-14108 19243 -114 157 -86 172c-532,990 -269,2222 571,2952l158 114 154 114 173 87c370,191 686,255 1097,270l28116 0 199 -16c346,3 966,-225 1227,-455l157 -114 142 -128 129 -143 114 -142 101 -172 99 -157c159,-344 271,-717 257,-1098l0 -200 -30 -185 -27 -186 -58 -185 -71 -185 -71 -171 -99 -158 -101 -157 -14135 -19399 -130 -142 -141 -129c-820,-716 -2128,-768 -2997,-114l-143 114 -141 129 -130 142 -112 142z"/>
   <path class="fil0" d="M38498 22122l-51 328 -44 145 -130 327c-355,718 -1123,1173 -1918,1169l-28094 0 -354 -26c-781,-127 -1464,-701 -1692,-1464l-47 -151 -50 -328 0 -342 22 -158 79 -330 59 -156 155 -308 14200 -19371 100 -127 121 -132 116 -107 270 -207 299 -148 328 -101 328 -50 326 0 341 50 151 47 311 129 290 176 247 211 110 120 14115 19373 187 291 124 308 50 163 51 329 0 340zm526 -775l-76 -250 -145 -362 -234 -375 -14135 -19399 -148 -166 -177 -161 -142 -114 -363 -224 -380 -160 -208 -66 -432 -68 -411 -2 -417 59 -411 123 -389 190 -364 273 -142 128 -163 179 -119 151 -14108 19243 -115 157 -196 384 -83 212 -101 418 -30 200 -3 428 60 414 68 229c360,1122 1387,1874 2566,1887l28150 2 394 -29c1028,-168 1870,-860 2185,-1860l58 -185 67 -412 3 -431 -59 -413z"/>
   <path class="fil0" d="M22000 8610c-1155,384 -2371,1184 -2556,1308 -2,1 -3,3 -5,3 -5,4 -10,7 -14,10 -4,3 -6,5 -6,5 -56,43 -82,106 -56,147 27,41 96,44 161,11l1 2c0,0 968,-663 2116,-997 809,-235 1708,-297 2418,112 1886,1085 921,4338 -578,6498 -861,1241 -2112,2580 -3512,3488 -1081,698 -2124,1178 -3345,1182 -2515,7 -2243,-2795 -2243,-2795l-2 0c1,-4 1,-6 1,-9 8,-82 -17,-152 -58,-155 -40,-7 -79,57 -87,140 0,5 0,9 0,12l-2 0c-28,408 -280,1941 1043,2999 485,390 1053,524 1600,556 736,44 1508,-113 1912,-227 570,-162 1401,-475 2592,-1261 1046,-689 2175,-1691 3040,-2696 1190,-1382 2352,-3438 2469,-5125 295,-4257 -3467,-3681 -4889,-3208z"/>
   <path class="fil0" d="M15356 16424c249,-41 591,-122 981,-278 542,-221 1627,-781 2645,-1752 808,-770 1322,-1643 1304,-2336 -25,-979 -1103,-983 -1528,-946 -105,8 -195,58 -245,128 -490,715 -3256,4744 -3371,4906 -136,191 -58,325 214,278z"/>
  </g>
 </g>
</svg>
