<?xml version="1.0" encoding="UTF-8"?>
<!DOCTYPE svg PUBLIC "-//W3C//DTD SVG 1.1//EN" "http://www.w3.org/Graphics/SVG/1.1/DTD/svg11.dtd">
<!-- Creator: CorelDRAW X8 -->
<svg xmlns="http://www.w3.org/2000/svg" xml:space="preserve" width="150.135mm" height="11.6587mm" version="1.1" style="shape-rendering:geometricPrecision; text-rendering:geometricPrecision; image-rendering:optimizeQuality; fill-rule:evenodd; clip-rule:evenodd"
viewBox="0 0 17568 1364"
 xmlns:xlink="http://www.w3.org/1999/xlink">
 <defs>
  <style type="text/css">
   <![CDATA[
    .fil0 {fill:#2C3E50;fill-rule:nonzero}
   ]]>
  </style>
 </defs>
 <g id="Слой_x0020_1">
  <metadata id="CorelCorpID_0Corel-Layer"/>
  <g id="_2969944603744">
   <polygon class="fil0" points="6331,368 6456,368 6562,1191 6565,1191 6779,368 6911,368 7126,1191 7129,1191 7233,368 7357,368 7190,1329 7062,1329 6846,521 6843,521 6628,1329 6500,1329 "/>
   <polygon class="fil0" points="11851,0 12011,1163 12015,1163 12318,0 12477,0 12782,1163 12786,1163 12958,0 13085,0 12849,1329 12716,1329 12399,139 12396,139 12080,1329 11942,1329 11716,0 "/>
   <path class="fil0" d="M4258 738l297 0c206,0 318,95 318,250 0,176 -110,247 -297,247l-318 0 0 -497zm0 -632l311 0c206,0 308,81 308,259 0,179 -92,272 -297,272l-322 0 0 -531zm-119 1229l476 0c257,0 367,-141 367,-338 0,-137 -63,-256 -225,-296l0 -4c166,-32 238,-158 238,-332 0,-232 -150,-359 -401,-359l-455 0 0 1329z"/>
   <polygon class="fil0" points="13346,1334 13464,1334 13464,373 13346,373 "/>
   <polygon class="fil0" points="15254,1334 15372,1334 15372,373 15254,373 "/>
   <path class="fil0" d="M15735 374l118 0 0 165 4 0c42,-115 170,-193 307,-193 269,0 334,141 334,370l0 618 -116 0 0 -599c0,-166 -39,-291 -228,-291 -187,0 -297,142 -301,330l0 560 -118 0 0 -960z"/>
   <path class="fil0" d="M17397 657c50,-135 -96,-211 -232,-211 -103,0 -226,42 -226,166 0,104 119,142 200,162l156 36c134,20 273,98 273,266 0,209 -206,288 -385,288 -223,0 -422,-118 -374,-339l117 0c-52,140 106,241 262,241 111,0 264,-49 264,-183 0,-111 -106,-149 -211,-175l-151 -33c-153,-41 -269,-93 -269,-257 0,-196 193,-270 362,-270 192,0 386,120 330,309l-116 0z"/>
   <path class="fil0" d="M9914 655c49,-135 -97,-211 -231,-211 -105,0 -228,41 -228,166 0,104 119,142 200,162l157 36c133,20 272,98 272,266 0,208 -206,288 -385,288 -223,0 -421,-118 -374,-339l118 0c-53,140 105,240 261,240 111,0 264,-48 264,-182 0,-112 -105,-149 -211,-175l-151 -33c-153,-41 -269,-94 -269,-257 0,-196 193,-270 362,-270 192,0 387,120 332,309l-117 0z"/>
   <path class="fil0" d="M5685 448c223,0 316,203 316,406 0,202 -93,405 -316,405 -223,0 -318,-203 -318,-405 0,-203 95,-406 318,-406zm0 -98c-292,0 -434,231 -434,504 0,272 142,503 434,503 292,0 434,-231 434,-503 0,-273 -142,-504 -434,-504z"/>
   <polygon class="fil0" points="14312,5 14430,5 14430,818 14876,374 15029,374 14673,729 15054,1334 14917,1334 14592,807 14430,969 14430,1334 14312,1334 "/>
   <path class="fil0" d="M9156 519c-31,-22 -68,-36 -124,-36 -116,0 -181,107 -181,290l0 562 -118 0 0 -958 118 0 0 118c38,-76 117,-133 207,-133 61,0 100,14 130,28l-32 129z"/>
   <polygon class="fil0" points="13831,1334 13949,1334 13949,5 13831,5 "/>
   <path class="fil0" d="M10783 730l0 0c-61,39 -258,129 -258,330 0,1 0,1 0,2 0,98 72,288 332,288 223,0 307,-163 307,-163l123 144 143 0c-36,-40 -204,-234 -204,-234 0,0 75,-137 75,-260l-102 0c0,78 -42,181 -42,181l-217 -266c0,0 210,-99 210,-281 0,-128 -109,-213 -254,-213 -137,0 -236,88 -236,215 0,108 65,177 123,257zm260 -263c0,116 -103,173 -167,211 0,0 -107,-114 -107,-211 0,-86 72,-125 137,-125 61,0 137,38 137,125zm-183 784c-98,0 -219,-69 -219,-197 0,-124 93,-190 202,-253 0,1 2,2 2,2l258 311c0,0 -70,137 -243,137z"/>
   <path class="fil0" d="M8290 1026c-38,138 -114,233 -279,233 -223,0 -295,-204 -297,-374l697 0c11,-267 -94,-535 -400,-535 -302,0 -413,253 -413,504 0,271 111,503 413,503 227,0 337,-113 390,-310l-111 -21zm-279 -578c188,0 279,165 284,339l-581 0c18,-173 107,-339 297,-339z"/>
   <polygon class="fil0" points="13346,193 13464,193 13464,5 13346,5 "/>
   <polygon class="fil0" points="15254,193 15372,193 15372,5 15254,5 "/>
   <path class="fil0" d="M320 574l170 0c42,0 79,-16 107,-44 34,-33 43,-82 43,-136 0,-48 -8,-89 -36,-119 -30,-29 -70,-44 -116,-44l-186 0 0 343 18 0zm3 536l158 0c43,0 79,-15 108,-43 31,-33 45,-81 45,-136 0,-47 -10,-87 -40,-117 -28,-28 -69,-44 -114,-44l-176 0 0 340 19 0zm394 -421c0,0 218,45 218,309 0,213 -137,339 -364,339l-571 0 0 -1325 566 0c128,0 225,31 286,92 60,59 98,147 98,263 0,318 -233,318 -233,318l0 4z"/>
   <path class="fil0" d="M1555 1087c-48,43 -113,90 -169,90 -81,0 -151,-57 -151,-145 0,-76 70,-138 132,-167l188 222zm177 246l306 0 -221 -257c65,-69 107,-163 115,-257l-214 0c-3,37 -17,72 -38,103l-109 -131c105,-52 179,-137 179,-259 0,-167 -139,-271 -297,-271 -151,0 -301,103 -301,265 0,79 43,144 94,201 -127,59 -224,156 -224,306 0,196 148,321 336,321 118,0 209,-35 300,-110l74 89zm-284 -669c-39,-48 -87,-87 -87,-153 0,-50 43,-90 95,-90 60,0 102,36 102,94 0,73 -52,113 -110,149z"/>
   <path class="fil0" d="M2927 983c0,2 -2,3 -4,3 0,0 -2,-1 -2,-3l-145 -974 -302 0 -145 974c0,2 -1,3 -3,3 -2,0 -4,-1 -4,-3l-75 -974 -318 0 204 1325 376 0c0,-14 114,-917 114,-917 0,-2 2,-3 3,-3 0,0 2,1 2,3l141 917 384 0 173 -1325 -332 0 -67 974z"/>
  </g>
 </g>
</svg>
