<?xml version="1.0" encoding="UTF-8"?>
<!DOCTYPE svg PUBLIC "-//W3C//DTD SVG 1.1//EN" "http://www.w3.org/Graphics/SVG/1.1/DTD/svg11.dtd">
<!-- Creator: CorelDRAW X8 -->
<svg xmlns="http://www.w3.org/2000/svg" xml:space="preserve" width="36.0535mm" height="6.8383mm" version="1.1" style="shape-rendering:geometricPrecision; text-rendering:geometricPrecision; image-rendering:optimizeQuality; fill-rule:evenodd; clip-rule:evenodd"
viewBox="0 0 4200 797"
 xmlns:xlink="http://www.w3.org/1999/xlink">
 <defs>
  <style type="text/css">
   <![CDATA[
    .fil0 {fill:#2C3E50;fill-rule:nonzero}
    .fil1 {fill:white;fill-rule:nonzero}
   ]]>
  </style>
 </defs>
 <g id="Слой_x0020_1">
  <metadata id="CorelCorpID_0Corel-Layer"/>
  <g id="_1962638055760">
   <path class="fil0" d="M660 4l0 1c76,1 164,18 208,78 46,53 59,132 56,208 -85,2 -161,0 -245,0 -5,-7 -1,-23 -5,-34 -3,-19 -17,-37 -37,-44 -40,-8 -82,-7 -120,-9 -79,1 -155,-2 -232,12 -50,26 -33,84 -40,131 -3,59 1,124 8,190 5,21 16,34 36,44 86,15 191,9 279,7 38,-4 94,2 111,-36 9,-17 5,-45 9,-62l243 -2 4 1c3,88 -8,192 -86,248 -35,29 -80,44 -124,47 -165,16 -316,17 -479,3 -80,-4 -157,-42 -198,-106 -29,-47 -38,-88 -42,-147l0 0c-3,-50 -6,-97 -6,-145l0 -3c0,-26 1,-51 3,-77 -1,-92 15,-195 99,-253 54,-43 130,-46 198,-51 28,-2 57,-4 85,-5l192 0c28,1 55,2 83,4z"/>
   <path class="fil0" d="M1415 182c-39,97 -69,189 -107,287 -2,2 -3,8 -1,10 90,1 169,0 259,-1l1 -3c-40,-98 -73,-196 -114,-295 -12,0 -28,-2 -38,2zm194 -172c105,248 219,510 326,764l-1 2c-83,0 -168,1 -256,1l-4 -3c-14,-45 -31,-86 -49,-131l-4 -3 -368 2c-5,2 -6,9 -9,14 -14,41 -30,86 -44,123 -85,2 -175,4 -257,0 69,-168 135,-329 204,-499l0 0c4,-6 6,-11 8,-20l0 1c34,-84 70,-167 102,-249l7 -2 265 -1 80 1z"/>
   <path class="fil0" d="M2598 14c88,13 149,76 166,154 5,23 8,51 9,77 -4,4 -6,1 -10,1 -76,1 -152,3 -230,1 1,-28 -6,-51 -33,-64 -56,-6 -116,-7 -176,-5 -40,3 -83,0 -122,8 -26,10 -33,34 -34,58 0,18 7,40 27,51l20 5c125,6 248,11 375,18 76,2 153,30 185,94 31,51 32,119 28,187 -6,76 -50,139 -122,170 -83,25 -171,21 -258,26 -106,3 -211,-1 -318,-14 -70,-10 -128,-56 -150,-117 -13,-36 -16,-75 -16,-113 75,-2 164,-3 240,-2 2,16 2,32 12,45 16,21 47,23 76,23 85,1 173,6 260,-6 25,-8 37,-29 39,-53 -2,-19 -1,-40 -16,-54 -18,-15 -46,-18 -69,-19 -40,-1 -85,-3 -126,-5 -91,-6 -183,-3 -272,-18 -70,-20 -125,-72 -137,-137 -9,-41 -9,-73 -7,-116 1,-67 36,-135 96,-168 37,-24 90,-29 136,-32 146,-10 287,-10 427,5z"/>
   <path class="fil0" d="M3143 22c1,1 2,2 2,1l1 243 2 244 -1 29c4,41 1,79 2,118l1 123 -4 3 -238 0 -1 -2c-4,-76 0,-181 -4,-265 1,-50 -1,-108 -1,-153l-2 -245c1,-19 2,-45 0,-63l0 0 1 -32c83,-1 163,-2 242,-1z"/>
   <path class="fil0" d="M3824 0l-175 0c-53,2 -106,5 -159,11 -81,6 -154,52 -189,115 -40,65 -33,135 -38,217l1 -9c-4,41 1,90 1,131 6,67 4,143 39,200 6,16 17,27 29,42 59,69 149,80 239,84l4 -2 1 3c128,6 253,5 376,-7 81,-4 157,-39 198,-100 55,-76 48,-176 49,-274 0,-95 0,-188 -29,-264 -34,-75 -109,-130 -203,-139 -49,-4 -96,-6 -144,-8z"/>
   <path class="fil1" d="M3718 205c-54,4 -110,-1 -166,13 -27,10 -39,39 -39,64l0 0c-6,92 -8,180 8,261 6,19 23,36 45,40 53,6 105,6 159,6 61,0 124,0 183,-10 25,-11 38,-28 41,-54 5,-72 8,-123 4,-198 -6,-27 2,-72 -20,-93 -11,-17 -35,-25 -54,-25 -54,-1 -105,-4 -161,-4z"/>
  </g>
 </g>
</svg>
