<?xml version="1.0" encoding="UTF-8"?>
<!DOCTYPE svg PUBLIC "-//W3C//DTD SVG 1.1//EN" "http://www.w3.org/Graphics/SVG/1.1/DTD/svg11.dtd">
<!-- Creator: CorelDRAW X8 -->
<svg xmlns="http://www.w3.org/2000/svg" xml:space="preserve" width="46.6389mm" height="46.479mm" version="1.1" style="shape-rendering:geometricPrecision; text-rendering:geometricPrecision; image-rendering:optimizeQuality; fill-rule:evenodd; clip-rule:evenodd"
viewBox="0 0 7142 7118"
 xmlns:xlink="http://www.w3.org/1999/xlink">
 <defs>
  <style type="text/css">
   <![CDATA[
    .fil0 {fill:#FEFEFE}
    .fil1 {fill:#E11F2C}
   ]]>
  </style>
 </defs>
 <g id="Слой_x0020_1">
  <metadata id="CorelCorpID_0Corel-Layer"/>
  <g id="_2969944607488">
   <path class="fil0" d="M6467 5514c-30,54 -117,8 -155,67l-158 359 -107 282c-3,21 2,39 15,55 44,31 102,22 157,27 19,2 40,7 22,47 -19,42 -89,217 -89,217 0,0 -7,36 -39,36 -28,0 -601,0 -601,0 -23,1 -45,5 -60,-14 -9,-18 -8,-22 3,-57 23,-69 50,-137 80,-202 30,-42 87,-24 130,-38 28,-8 61,-10 80,-38l30 -55 233 -582c38,-76 -16,-76 -16,-76 -67,-6 -129,-6 -112,-52 26,-67 48,-113 81,-179 18,-35 38,-36 77,-36 129,0 313,0 453,0 67,0 61,40 61,40 -20,56 -53,134 -85,199z"/>
   <path class="fil0" d="M5491 6259c-56,113 -120,222 -191,327 -12,28 -98,16 -144,18l-1177 0c-59,-6 -32,-71 -23,-104 15,-62 39,-163 54,-176 18,-21 58,-18 81,-30 67,-20 102,-99 125,-161 65,-178 137,-341 206,-527 50,-134 -170,-24 -140,-112 25,-68 59,-142 82,-185 16,-37 67,-34 67,-34 153,0 295,0 467,0 25,0 39,15 44,26l-3 22c-11,37 -37,128 -65,188 -22,31 -63,25 -97,30 -51,6 -84,29 -111,77 -91,168 -226,524 -247,663 0,0 -10,41 10,77 36,65 110,84 181,81 191,-24 359,-110 530,-184l325 -146c16,-7 35,-11 54,-7 25,13 12,42 10,63l-38 94z"/>
   <path class="fil0" d="M3843 6556c-10,27 -12,45 -52,49 -54,-1 -454,-1 -604,-1 -50,7 -39,-35 -39,-35 25,-82 59,-172 88,-253 31,-42 95,-11 134,-41 63,-42 80,-115 110,-177 3,-19 11,-39 -3,-55 -16,-15 -38,-16 -59,-15 -180,-1 -364,-9 -538,7 -26,8 -33,13 -46,28 -48,66 -65,108 -91,177 -7,23 4,47 10,49 34,22 75,17 113,26 25,6 31,26 25,50 -21,70 -42,132 -72,199 -22,35 -63,42 -102,41 -143,-4 -297,-1 -438,0 -50,0 -37,-3 -58,-14 -14,-16 -3,-40 2,-57l79 -207c21,-38 66,-22 93,-30 45,-12 106,-9 123,-64 171,-298 362,-596 657,-827 123,-105 275,-145 441,-130 79,13 152,72 180,146 64,135 61,298 49,459l-31 321c-1,32 -15,87 -3,97 26,21 95,3 90,37 -17,76 -37,148 -58,220zm-245 -976c-8,-72 2,-159 -72,-204 -38,-22 -86,-6 -121,8 -169,89 -305,244 -407,397 -11,16 -19,36 -18,57 3,7 10,17 21,15 174,8 349,4 521,-7 0,0 17,-2 25,-19 36,-74 44,-160 51,-247z"/>
   <path class="fil0" d="M2270 6281c-157,152 -349,232 -551,282 -217,50 -448,66 -685,69 -225,2 -461,-10 -672,-55 -13,-11 -12,-31 -9,-45 25,-71 60,-138 93,-205 35,-46 97,-22 146,-19 69,15 152,14 206,-28 66,-73 89,-164 126,-249 39,-116 86,-228 95,-354 1,-23 -14,-48 -37,-57 -61,-7 -118,12 -176,21 -85,25 -175,40 -262,60 -18,-10 -20,-29 -21,-47 16,-75 50,-142 76,-212 24,-40 23,-94 75,-118 227,-73 477,-90 733,-87 309,1 611,60 867,195 134,70 243,205 241,358 0,199 -111,350 -245,491zm90 -489c-1,-67 -54,-128 -114,-159 -176,-91 -392,-113 -607,-103 -98,6 -199,8 -285,48 -45,10 -65,57 -85,91 -72,149 -120,309 -160,472 -10,40 -13,87 -2,125 6,25 29,40 51,51 99,23 211,18 308,3 194,-31 383,-76 554,-166 143,-70 346,-175 340,-362z"/>
   <polygon class="fil1" points="0,7118 7142,7118 7142,0 0,0 "/>
   <path class="fil0" d="M6463 5441c-29,52 -112,7 -151,64l-153 350 -104 274c-3,22 2,39 15,54 42,30 99,21 153,26 18,3 38,7 21,47 -18,40 -86,210 -86,210 0,0 -8,35 -39,35 -26,0 -585,0 -585,0 -22,1 -44,6 -58,-13 -9,-18 -7,-22 3,-56 23,-67 48,-132 77,-197 30,-40 86,-22 128,-36 27,-9 58,-10 78,-37l28 -54 227 -566c37,-75 -15,-75 -15,-75 -66,-6 -126,-6 -109,-50 25,-65 47,-111 79,-174 17,-34 36,-36 75,-36 124,0 304,2 441,0 65,0 59,40 59,40 -21,55 -53,130 -84,194z"/>
   <path class="fil0" d="M5514 6166c-54,110 -117,216 -187,318 -11,27 -94,15 -139,17l-1146 0c-58,-5 -30,-68 -23,-100 15,-61 38,-158 52,-173 18,-20 58,-16 81,-28 64,-19 99,-97 120,-156 64,-174 134,-333 201,-514 49,-130 -166,-23 -136,-109 24,-66 57,-137 80,-180 15,-36 66,-34 66,-34 148,0 286,0 454,0 24,0 38,16 42,27l-3 20c-11,37 -36,125 -63,183 -22,30 -61,24 -95,30 -50,6 -82,29 -107,75 -89,163 -220,510 -240,645 0,0 -11,40 9,75 35,63 106,82 177,78 185,-23 349,-106 515,-178l317 -143c15,-5 33,-10 53,-6 23,12 11,41 9,60l-37 93z"/>
   <path class="fil0" d="M3909 6456c-10,25 -11,43 -50,46 -43,-1 -311,-1 -488,-1l0 -304c28,-2 58,0 79,-16 62,-40 78,-112 107,-172 3,-18 10,-38 -3,-53 -14,-15 -36,-16 -57,-16 -41,0 -84,0 -126,-1l0 -166c77,-1 152,-4 227,-9 0,0 17,-3 24,-19 36,-72 44,-155 50,-240 -7,-71 3,-156 -70,-199 -37,-21 -83,-6 -117,8 -40,21 -78,46 -114,73l0 -125c97,-47 205,-64 318,-53 76,13 147,70 175,141 62,133 59,291 47,447l-30 313c-1,31 -14,85 -2,94 24,21 86,5 87,33l0 2c0,1 0,1 0,1 -16,75 -36,144 -57,216zm-538 45c-38,0 -73,0 -99,0 -48,7 -37,-33 -37,-33 24,-80 56,-168 85,-247 13,-18 31,-22 51,-24l0 304zm0 -562l0 -166c-93,3 -186,1 -280,-2 -10,1 -17,-8 -20,-16 -1,-20 6,-39 18,-54 75,-114 170,-228 282,-314l0 -125c-39,19 -76,43 -111,73 -287,225 -473,516 -638,805 -17,54 -78,51 -121,62 -26,8 -70,-7 -90,30l-77 201c-5,17 -16,40 -3,56 21,11 9,13 58,13 137,0 286,-3 426,0 37,1 78,-6 98,-39 30,-66 51,-125 71,-194 6,-24 0,-43 -24,-48 -37,-9 -77,-5 -110,-26 -6,-2 -17,-25 -9,-48 23,-66 41,-108 88,-172 13,-15 19,-19 45,-27 128,-13 263,-10 397,-9z"/>
   <path class="fil0" d="M2379 6187c-149,146 -333,223 -525,271l0 -287c97,-26 193,-61 281,-107 140,-68 337,-172 331,-353 0,-65 -51,-125 -109,-155 -148,-76 -324,-103 -503,-102l0 -261c188,29 369,82 530,167 130,69 237,200 234,349 0,194 -107,341 -239,478zm-525 271c-3,1 -7,3 -10,4 -212,49 -437,64 -667,67 -219,2 -448,-10 -655,-54 -12,-11 -11,-30 -8,-43 23,-70 58,-135 90,-200 34,-45 94,-22 142,-19 68,15 148,14 201,-26 64,-72 86,-161 122,-243 38,-112 84,-222 93,-345 0,-22 -14,-46 -35,-56 -60,-5 -115,12 -172,21 -84,25 -170,39 -255,58 -18,-10 -20,-27 -20,-45 15,-73 47,-139 74,-206 22,-40 21,-92 73,-116 221,-70 463,-87 713,-84 105,0 212,8 314,22l0 261c-30,0 -59,1 -88,3 -97,4 -194,8 -277,46 -46,10 -65,56 -84,89 -69,145 -117,300 -155,459 -10,39 -14,84 -3,123 6,23 29,38 51,48 95,23 204,17 299,3 88,-13 174,-30 257,-54l0 287z"/>
  </g>
 </g>
</svg>
