<?xml version="1.0" encoding="UTF-8"?>
<!DOCTYPE svg PUBLIC "-//W3C//DTD SVG 1.1//EN" "http://www.w3.org/Graphics/SVG/1.1/DTD/svg11.dtd">
<!-- Creator: CorelDRAW X8 -->
<svg xmlns="http://www.w3.org/2000/svg" xml:space="preserve" width="65.9998mm" height="36.619mm" version="1.1" style="shape-rendering:geometricPrecision; text-rendering:geometricPrecision; image-rendering:optimizeQuality; fill-rule:evenodd; clip-rule:evenodd"
viewBox="0 0 15189 8427"
 xmlns:xlink="http://www.w3.org/1999/xlink">
 <defs>
  <style type="text/css">
   <![CDATA[
    .fil0 {fill:#2C3E50}
   ]]>
  </style>
 </defs>
 <g id="Слой_x0020_1">
  <metadata id="CorelCorpID_0Corel-Layer"/>
  <path class="fil0" d="M822 4709c71,51 150,90 231,116 82,26 166,39 251,39 85,0 170,-13 252,-39 82,-26 161,-65 232,-116 72,-51 135,-114 187,-185 51,-71 90,-150 116,-231 26,-82 39,-166 39,-251 0,-85 -13,-170 -39,-253 -26,-82 -65,-161 -116,-232 -52,-71 -115,-134 -186,-186 -71,-51 -150,-90 -233,-117 -82,-26 -167,-39 -252,-39 -85,0 -170,13 -251,39 -82,27 -160,66 -231,117 -71,52 -134,115 -185,186 -51,72 -91,151 -117,233 -26,82 -38,167 -38,252 0,85 12,169 38,250 26,82 65,161 117,231 51,71 114,135 185,186l0 0zm9189 -191c-68,-162 -170,-310 -289,-428 -120,-117 -257,-204 -406,-259 125,-60 241,-140 345,-238 103,-98 194,-215 256,-346 62,-132 94,-278 94,-423l0 0 1 -1501 0 0c0,-173 -35,-347 -101,-507 -66,-160 -164,-306 -287,-428 -122,-123 -268,-221 -428,-287 -160,-66 -334,-101 -507,-101l-2724 0 0 8253 2828 0 0 0c173,0 347,-35 507,-101 159,-66 306,-164 428,-286 122,-123 220,-269 287,-429 66,-160 100,-334 100,-507 0,-633 -1,-1265 0,-1898 0,-176 -35,-352 -104,-514l0 0zm-2717 -3807l717 -2 0 0c80,-1 160,16 234,46 74,31 142,76 199,133 57,56 102,124 133,198 30,74 46,154 46,234l0 0 4 1655 0 0c0,67 -13,133 -39,195 -25,61 -63,117 -110,165 -47,47 -103,84 -165,110 -61,25 -128,38 -194,38l0 0 -825 4 0 -2776zm1346 6473c-25,61 -63,118 -110,165 -47,47 -103,84 -165,110 -61,25 -128,38 -194,39l0 0 -877 3 0 -3273 769 -2 0 0c80,-1 160,16 234,46 74,31 142,76 199,133 56,57 102,124 132,199 31,73 47,154 47,234l0 0 4 2151 0 0c0,67 -13,133 -39,195l0 0zm5231 -1431l-2 1232 0 0c0,80 -16,160 -46,234 -31,74 -76,142 -133,199 -56,57 -124,102 -198,133 -74,30 -154,46 -235,46l-123 0 0 0c-81,0 -161,-16 -235,-46 -74,-31 -142,-76 -198,-133 -57,-57 -102,-125 -133,-199 -31,-74 -46,-154 -46,-234l0 0 0 -6973 -1370 -2 1 8243 4035 0 1 -2502 -1318 2 0 0zm-10435 1388c0,80 -16,160 -46,234 -31,74 -76,142 -133,199 -57,56 -124,102 -198,132 -74,31 -155,47 -235,47l-124 0 0 0c-80,0 -160,-16 -234,-47 -74,-30 -142,-76 -198,-132 -57,-57 -102,-125 -133,-199 -31,-74 -47,-154 -47,-234l0 0 -1 -1388 -1411 -2 0 1048c0,213 42,426 123,623 82,197 203,378 354,528 150,151 331,272 528,353 197,82 410,124 623,124l873 0 0 0c213,0 426,-42 623,-124 197,-81 378,-202 528,-353 151,-150 272,-331 353,-528 82,-197 124,-410 124,-623l0 -6789 -1369 2 0 7129 0 0zm-827 -7138l-2609 0 1307 2962 1302 -2962 0 0z"/>
 </g>
</svg>
