<?xml version="1.0" encoding="UTF-8"?>
<!DOCTYPE svg PUBLIC "-//W3C//DTD SVG 1.1//EN" "http://www.w3.org/Graphics/SVG/1.1/DTD/svg11.dtd">
<!-- Creator: CorelDRAW X8 -->
<svg xmlns="http://www.w3.org/2000/svg" xml:space="preserve" width="62.0001mm" height="20.375mm" version="1.1" style="shape-rendering:geometricPrecision; text-rendering:geometricPrecision; image-rendering:optimizeQuality; fill-rule:evenodd; clip-rule:evenodd"
viewBox="0 0 5742 1887"
 xmlns:xlink="http://www.w3.org/1999/xlink">
 <defs>
  <style type="text/css">
   <![CDATA[
    .fil0 {fill:#2C3E50}
   ]]>
  </style>
 </defs>
 <g id="Слой_x0020_1">
  <metadata id="CorelCorpID_0Corel-Layer"/>
  <g id="_1962638056240">
   <path class="fil0" d="M0 6l508 0 0 655c0,107 113,146 129,36l113 -697 591 0 -189 858 -252 70 0 1 252 69 189 858 -591 0 -113 -697c-16,-110 -129,-70 -129,37l0 654 -508 0 0 -1844z"/>
   <path class="fil0" d="M2940 19l906 0c386,68 447,852 18,940l0 1 227 38 190 858 -592 0 -113 -697c-15,-110 -128,-70 -128,37l0 654 -508 0 0 -1831zm703 471c0,-110 -172,-110 -172,1l0 181c0,112 172,113 172,1l0 -183z"/>
   <path class="fil0" d="M2700 1488c0,200 -195,381 -381,381l-489 0c-186,0 -381,-181 -381,-381l0 -1103c0,-200 195,-382 381,-382l489 0c186,0 381,182 381,382l0 1103zm-538 -998c0,-110 -173,-110 -173,1l0 880c0,111 173,112 173,1l0 -882z"/>
   <path class="fil0" d="M5668 1887l-787 0c-282,0 -490,-184 -490,-490l0 -869c0,-307 208,-491 490,-491l795 0 1 429 -616 0c-86,0 -121,49 -121,129l0 782c0,111 173,112 173,1l0 -658 555 0c98,0 98,159 0,159l0 1008z"/>
  </g>
 </g>
</svg>
