<?xml version="1.0" encoding="UTF-8"?>
<!DOCTYPE svg PUBLIC "-//W3C//DTD SVG 1.1//EN" "http://www.w3.org/Graphics/SVG/1.1/DTD/svg11.dtd">
<!-- Creator: CorelDRAW X8 -->
<svg xmlns="http://www.w3.org/2000/svg" xml:space="preserve" width="62.0001mm" height="8.9883mm" version="1.1" style="shape-rendering:geometricPrecision; text-rendering:geometricPrecision; image-rendering:optimizeQuality; fill-rule:evenodd; clip-rule:evenodd"
viewBox="0 0 1939 281"
 xmlns:xlink="http://www.w3.org/1999/xlink">
 <defs>
  <style type="text/css">
   <![CDATA[
    .fil0 {fill:#2C3E50}
   ]]>
  </style>
 </defs>
 <g id="Слой_x0020_1">
  <metadata id="CorelCorpID_0Corel-Layer"/>
  <g id="_1962739043632">
   <path class="fil0" d="M0 271l91 0 56 -156c0,0 14,-53 103,-53 82,0 76,30 76,35 0,4 -6,31 -70,31 -64,0 -93,-11 -93,-11l14 66c0,0 62,8 90,8 24,0 148,-14 148,-100 0,-56 -74,-91 -163,-91 -105,0 -164,40 -190,106l-62 165z"/>
   <polygon class="fil0" points="436,117 378,271 463,271 520,117 "/>
   <path class="fil0" d="M822 190c0,62 -104,89 -164,89 -29,0 -142,-16 -142,-82 0,-67 112,-88 158,-88 51,0 148,19 148,81zm-154 -33c-20,0 -63,11 -63,38 0,26 38,35 60,35 23,0 67,-11 67,-37 0,-26 -40,-36 -64,-36z"/>
   <path class="fil0" d="M817 271l82 0 34 -89c2,-8 14,-26 50,-26 41,0 36,25 34,32l-31 83 82 0 31 -86c0,0 27,-75 -99,-75 -129,0 -148,66 -148,66l-35 95z"/>
   <path class="fil0" d="M1282 150c49,0 51,15 51,15 0,0 9,11 -46,11 -54,0 -76,-14 -76,-14 0,0 28,-12 71,-12zm-8 -40c-58,0 -156,24 -156,91 0,58 107,79 140,79 85,0 123,-13 123,-13l17 -48c0,0 -49,18 -119,18 -107,0 -99,-45 -99,-45 0,0 29,24 101,24 71,0 133,-15 133,-44 0,-29 -61,-62 -140,-62z"/>
   <path class="fil0" d="M1719 271l83 0 29 -83c0,0 6,-24 28,-24 22,0 64,0 64,0l16 -47 -116 0c0,0 -47,2 -67,54 -20,51 -37,100 -37,100z"/>
   <path class="fil0" d="M1725 173c0,29 -62,44 -134,44 -71,0 -100,-24 -100,-24 0,0 -8,45 99,45 70,0 119,-18 119,-18l-18 48c0,0 -37,13 -122,13 -33,0 -140,-21 -140,-78 0,-68 98,-92 156,-92 79,0 140,33 140,62zm-203 -9c0,0 21,13 76,13 55,0 46,-10 46,-10 0,0 -2,-15 -51,-15 -43,0 -71,12 -71,12z"/>
  </g>
 </g>
</svg>
