<?xml version="1.0" encoding="UTF-8"?>
<!DOCTYPE svg PUBLIC "-//W3C//DTD SVG 1.1//EN" "http://www.w3.org/Graphics/SVG/1.1/DTD/svg11.dtd">
<!-- Creator: CorelDRAW X8 -->
<svg xmlns="http://www.w3.org/2000/svg" xml:space="preserve" width="62.0001mm" height="9.334mm" version="1.1" style="shape-rendering:geometricPrecision; text-rendering:geometricPrecision; image-rendering:optimizeQuality; fill-rule:evenodd; clip-rule:evenodd"
viewBox="0 0 3385 510"
 xmlns:xlink="http://www.w3.org/1999/xlink">
 <defs>
  <style type="text/css">
   <![CDATA[
    .fil1 {fill:#0066B0}
    .fil0 {fill:#2C3E50}
   ]]>
  </style>
 </defs>
 <g id="Слой_x0020_1">
  <metadata id="CorelCorpID_0Corel-Layer"/>
  <g id="_1962739019760">
   <path class="fil0" d="M1986 21l0 453c0,2 0,21 20,21l55 0c19,0 19,-19 19,-19l0 -455c0,0 0,-21 -19,-21l-55 0c-20,0 -20,21 -20,21z"/>
   <path class="fil0" d="M2226 353c46,-24 157,-21 166,-19 6,0 13,4 13,12 0,94 -131,108 -181,75 -11,-7 -17,-19 -17,-31 -1,-16 5,-28 19,-37zm-57 129c60,44 176,32 227,-12 6,-6 14,-2 15,4 6,17 13,21 28,21 9,0 33,0 33,0 20,0 20,-19 20,-19l0 -206c0,-110 -104,-140 -184,-140 -89,0 -147,34 -176,102 -3,7 6,16 13,16l61 0c12,0 20,-9 23,-15 17,-26 42,-35 91,-35 53,0 66,12 84,35 10,17 -5,33 -14,33 -127,6 -149,12 -184,18 -50,7 -89,56 -89,106 0,34 16,67 52,92z"/>
   <path class="fil0" d="M2927 474l0 -199c0,-90 -80,-145 -138,-145 -57,0 -106,15 -143,46 -3,1 -13,4 -13,-3l0 -21c0,0 0,-19 -19,-19l-48 0c0,0 -20,0 -20,19l0 322c0,21 20,21 20,21l48 0c19,0 19,-19 19,-21l0 -158c0,-43 29,-117 127,-117 69,0 80,48 80,76l0 201c0,19 20,19 20,19l48 0c0,0 19,0 19,-21z"/>
   <path class="fil0" d="M1505 319c0,-83 65,-189 225,-189 158,0 225,106 225,189 0,86 -65,189 -225,189 -158,0 -225,-100 -225,-189zm358 0c0,-53 -44,-121 -133,-121 -89,0 -133,69 -133,121 0,53 41,121 133,121 89,0 133,-68 133,-121z"/>
   <path class="fil0" d="M3175 201c68,0 121,46 121,118 2,74 -53,121 -121,121 -68,0 -120,-53 -120,-122 0,-68 56,-117 120,-117zm112 263c6,-5 12,-2 12,9 0,3 0,22 21,22l46 0c0,0 19,0 19,-21l0 -453c0,-21 -19,-21 -19,-21l-46 0c0,0 -21,0 -21,21l0 143c0,10 -6,13 -12,10 -127,-97 -322,0 -322,144 2,161 192,248 322,146z"/>
   <path class="fil0" d="M1124 293l0 183c0,19 -19,19 -19,19l-44 0c0,0 -21,0 -21,-19l0 -455c0,-21 21,-21 21,-21l288 0c65,0 139,46 139,136 0,46 -27,86 -62,111 -3,3 -5,6 -3,7 23,18 25,34 32,68 17,59 18,112 42,163 3,3 -2,10 -8,10l-57 0c-18,0 -30,-9 -33,-21 -21,-62 -6,-122 -49,-181 -10,-15 -32,-21 -59,-21l-146 0c0,0 -21,0 -21,21zm195 -86c0,0 79,0 79,-71 0,-69 -79,-69 -79,-69l-174 0c-21,0 -21,19 -21,19l0 102c0,19 21,19 21,19l174 0z"/>
   <polygon class="fil0" points="0,495 947,495 947,378 0,378 "/>
   <polygon class="fil1" points="0,337 947,337 947,0 0,0 "/>
  </g>
 </g>
</svg>
