<?xml version="1.0" encoding="UTF-8"?>
<!DOCTYPE svg PUBLIC "-//W3C//DTD SVG 1.1//EN" "http://www.w3.org/Graphics/SVG/1.1/DTD/svg11.dtd">
<!-- Creator: CorelDRAW X8 -->
<svg xmlns="http://www.w3.org/2000/svg" xml:space="preserve" width="62.7645mm" height="11.6691mm" version="1.1" style="shape-rendering:geometricPrecision; text-rendering:geometricPrecision; image-rendering:optimizeQuality; fill-rule:evenodd; clip-rule:evenodd"
viewBox="0 0 4446 827"
 xmlns:xlink="http://www.w3.org/1999/xlink">
 <defs>
  <style type="text/css">
   <![CDATA[
    .fil0 {fill:#2C3E50}
   ]]>
  </style>
 </defs>
 <g id="Слой_x0020_1">
  <metadata id="CorelCorpID_0Corel-Layer"/>
  <path class="fil0" d="M744 334l-345 -141 464 0 26 -193 -613 0c-113,0 -215,100 -212,213 3,82 40,141 118,173l335 140 -490 0 -27 194 601 2c126,0 234,-68 255,-198 16,-99 -22,-153 -112,-190zm2242 388l-305 0 56 -445 496 0 13 -85 -498 0 24 -192 616 0c240,0 245,343 -29,402l254 138 66 -540 767 0 -18 165 -412 0 -13 99 414 0 -21 195 -416 0 -12 98 415 0 -18 165 -773 0 -12 105 -564 -343 -30 238zm-355 -339c-9,77 -46,141 -95,203 -38,47 -91,86 -144,113 -64,32 -126,45 -196,51 -102,8 -188,-10 -272,-75 -44,-34 -81,-83 -99,-137 -15,-44 -10,-86 -4,-131l50 -407 355 0 -63 499 92 0 63 -499 358 0 -45 383zm-1747 339l347 0 31 -249 109 0 -31 249 347 0 89 -722 -347 0 -31 250 -109 0 31 -250 -346 0 -90 722z"/>
 </g>
</svg>
