<?xml version="1.0" encoding="UTF-8"?>
<!DOCTYPE svg PUBLIC "-//W3C//DTD SVG 1.1//EN" "http://www.w3.org/Graphics/SVG/1.1/DTD/svg11.dtd">
<!-- Creator: CorelDRAW X8 -->
<svg xmlns="http://www.w3.org/2000/svg" xml:space="preserve" width="56.5292mm" height="12.7935mm" version="1.1" style="shape-rendering:geometricPrecision; text-rendering:geometricPrecision; image-rendering:optimizeQuality; fill-rule:evenodd; clip-rule:evenodd"
viewBox="0 0 1329 301"
 xmlns:xlink="http://www.w3.org/1999/xlink">
 <defs>
  <style type="text/css">
   <![CDATA[
    .fil0 {fill:#2C3E50;fill-rule:nonzero}
   ]]>
  </style>
 </defs>
 <g id="Слой_x0020_1">
  <metadata id="CorelCorpID_0Corel-Layer"/>
  <g id="_1962638057520">
   <path class="fil0" d="M252 252c-26,27 -64,42 -102,42 -37,0 -75,-15 -101,-42 -27,-26 -43,-64 -43,-102 0,-37 16,-75 43,-101 26,-27 64,-43 101,-43 38,0 76,16 102,43 27,26 42,64 42,101 0,38 -15,76 -42,102l0 0zm5 -208c-28,-28 -67,-44 -107,-44 -39,0 -78,16 -106,44 -28,28 -44,67 -44,106 0,40 16,79 44,107 28,28 67,44 106,44 40,0 79,-16 107,-44 28,-28 44,-67 44,-107 0,-39 -16,-78 -44,-106z"/>
   <polygon class="fil0" points="142,146 142,155 150,160 159,155 159,146 150,141 "/>
   <path class="fil0" d="M158 123l0 -21c0,-1 -1,-3 -3,-5 -1,-1 -3,-2 -5,-2 -1,0 -3,1 -5,2 -1,2 -2,4 -2,5l0 21 7 4 8 -4z"/>
   <path class="fil0" d="M105 168c-1,1 -3,3 -3,5 -1,1 0,3 1,5 1,2 2,3 4,3 2,1 4,1 5,0l18 -11 0 -8 -7 -4 -18 10z"/>
   <path class="fil0" d="M196 168l0 0 -18 -10 -7 4 0 8 17 11c2,1 4,1 6,0 2,0 3,-1 4,-3 1,-2 1,-4 1,-5 -1,-2 -2,-4 -3,-5z"/>
   <path class="fil0" d="M254 212c0,0 -1,0 -1,0l-32 -6c0,0 -1,0 -2,-1 0,-1 -1,-1 -1,-2 0,-2 -1,-5 -2,-6 -2,-2 -3,-3 -6,-4 -2,-1 -4,-1 -6,0 -4,2 -8,2 -12,2 -4,-1 -8,-2 -12,-4l-9 -5 0 61 -13 0 0 -69 -8 -4 -7 4 0 69 -13 0 0 -61 -9 5c-4,2 -8,3 -12,4 -4,0 -8,0 -12,-2 -2,-1 -4,-1 -7,0 -2,1 -4,2 -5,4 -2,1 -2,4 -3,6 0,1 0,1 -1,2 0,1 -1,1 -2,1l-31 6c-1,0 -1,0 -2,0 0,0 0,-1 -1,-1 0,0 0,-1 0,-1 0,-1 0,-1 1,-2l21 -24c0,-1 1,-1 2,-1 0,0 1,0 2,0 2,1 4,1 7,1 2,0 4,-1 6,-3 1,-2 2,-4 3,-6 0,-4 2,-8 4,-11 3,-3 6,-6 9,-8l10 -6 -54 -30 7 -12 60 35 7 -4 0 -9 -60 -34 7 -12 53 31 0 -11c0,-4 1,-8 3,-11 1,-4 4,-8 7,-10 2,-2 3,-4 3,-6 1,-2 1,-4 0,-7 -1,-2 -2,-3 -4,-5 -1,0 -1,-1 -1,-2 -1,0 -1,-1 0,-2l10 -30c0,-1 1,-1 1,-1 0,-1 1,-1 1,-1 1,0 1,0 2,1 0,0 0,0 0,1l11 30c0,1 0,2 0,2 0,1 -1,2 -1,2 -2,2 -4,3 -4,5 -1,3 -1,5 -1,7 1,2 2,4 4,6 3,2 5,6 7,10 2,3 3,7 3,11l0 11 53 -31 7 12 -60 34 0 9 7 4 60 -35 6 12 -53 30 9 6c4,2 7,5 9,8 3,3 4,7 5,11 1,2 2,4 3,6 2,2 4,3 6,3 2,0 5,0 7,-1 1,0 1,0 2,0 1,0 2,0 2,1l21 24c0,1 1,1 1,2 0,0 0,1 -1,1 0,0 0,1 -1,1l0 0zm-13 -152c-24,-24 -57,-37 -91,-37 -33,0 -66,13 -90,37 -24,24 -37,57 -37,90 0,34 13,67 37,91 24,23 57,37 90,37 34,0 67,-14 91,-37 23,-24 37,-57 37,-91 0,-33 -14,-66 -37,-90z"/>
   <polygon class="fil0" points="1017,276 1017,25 1061,25 1061,121 1109,121 1109,25 1154,25 1154,276 1109,276 1109,166 1061,166 1061,276 "/>
   <polygon class="fil0" points="375,179 326,25 370,25 400,123 433,25 474,25 424,174 424,276 375,276 "/>
   <polygon class="fil0" points="636,276 675,276 675,87 709,251 745,251 775,84 775,276 821,276 821,25 750,25 729,144 704,25 636,25 "/>
   <path class="fil0" d="M1231 176l19 -112 18 112 -37 0 0 0zm57 -151l-68 0 -46 251 41 0 9 -59 51 0 9 59 45 0 -41 -251z"/>
   <path class="fil0" d="M899 176l18 -112 18 112 -36 0 0 0zm56 -151l-68 0 -46 251 41 0 10 -59 50 0 10 59 44 0 -41 -251z"/>
   <path class="fil0" d="M517 176l19 -112 18 112 -37 0 0 0zm57 -151l-68 0 -46 251 41 0 9 -59 51 0 9 59 45 0 -41 -251z"/>
  </g>
 </g>
</svg>
